<svg width="226" height="76" viewBox="0 0 226 76" fill="none" xmlns="http://www.w3.org/2000/svg">
<path d="M212.622 32.5752C212.742 32.7045 212.868 32.8459 213 33C225.5 45 226 57 214.5 59.6384C203 62.2768 34.1813 68.4986 13.0735 59.6384C-8.03431 50.7781 -16.5466 28 115.5 28C126.439 28 136.611 28.3006 146.018 28.5786C180.354 29.5933 204.496 30.3066 218.5 15C216.513 27.517 214.22 31.6129 212.622 32.5752Z" fill="url(#paint0_linear_6_25)"/>
<path d="M212.622 32.5752C212.742 32.7045 212.868 32.8459 213 33C225.5 45 226 57 214.5 59.6384C203 62.2768 34.1813 68.4986 13.0735 59.6384C-8.03431 50.7781 -16.5466 28 115.5 28C126.439 28 136.611 28.3006 146.018 28.5786C180.354 29.5933 204.496 30.3066 218.5 15C216.513 27.517 214.22 31.6129 212.622 32.5752Z" stroke="#202119"/>
<path d="M9.24413 52.4229L9.45995 52.2568L9.47655 51.9082C9.75325 51.2331 10.0355 50.5856 10.3232 49.9658C10.6221 49.346 10.932 48.7096 11.2529 48.0566C11.3525 47.8464 11.4521 47.6361 11.5518 47.4258C11.6624 47.2155 11.7676 46.9997 11.8672 46.7783C11.8561 46.734 11.8506 46.6898 11.8506 46.6455C11.8506 46.5902 11.8616 46.5293 11.8838 46.4629C12.0387 46.2415 12.1605 46.0423 12.249 45.8652C12.3486 45.6882 12.4427 45.5055 12.5312 45.3174C12.6309 45.096 12.736 44.8747 12.8467 44.6533C12.9684 44.432 13.1178 44.2161 13.2949 44.0059L13.4111 43.8398L13.5937 43.8564C13.638 43.8343 13.6823 43.8177 13.7266 43.8066C13.7819 43.7845 13.8483 43.7734 13.9258 43.7734L14.2246 43.8232C14.5898 43.6572 14.9108 43.4193 15.1875 43.1094C15.4753 42.7884 15.763 42.4066 16.0508 41.9639L16.25 41.6816L16.5156 41.8477C16.571 41.8809 16.6595 41.9141 16.7812 41.9473C16.903 41.9805 17.0303 42.0192 17.1631 42.0635C17.3955 42.1188 17.6224 42.1852 17.8437 42.2627C18.0651 42.3291 18.2366 42.4232 18.3584 42.5449L18.4414 42.6943C18.4635 42.8161 18.4801 42.9268 18.4912 43.0264C18.5133 43.126 18.5355 43.2256 18.5576 43.3252C18.6019 43.5576 18.6406 43.79 18.6738 44.0225C18.707 44.2438 18.7292 44.4928 18.7402 44.7695C18.7956 44.9909 18.8454 45.2178 18.8896 45.4502C18.945 45.6715 18.9948 45.8929 19.0391 46.1143C19.0944 46.4352 19.1553 46.7451 19.2217 47.0439C19.2881 47.3317 19.3766 47.6084 19.4873 47.874C19.598 47.874 19.6644 47.8796 19.6865 47.8906C19.8193 47.8353 19.9743 47.8021 20.1514 47.791L20.3672 47.7744L20.4336 47.9736C20.4557 48.0068 20.4834 48.04 20.5166 48.0732C20.5498 48.1064 20.5885 48.1396 20.6328 48.1729C20.8099 48.1839 20.9372 48.2227 21.0146 48.2891C21.1032 48.3444 21.1751 48.3997 21.2305 48.4551C21.2526 48.4772 21.2803 48.5049 21.3135 48.5381C21.3467 48.5602 21.3743 48.5768 21.3965 48.5879L21.6953 48.7041L21.5293 49.0195C21.4075 49.252 21.2194 49.4788 20.9648 49.7002C20.7213 49.9215 20.4447 50.1042 20.1348 50.248C20.1569 50.3255 20.168 50.3975 20.168 50.4639C20.179 50.5303 20.1956 50.6077 20.2178 50.6963C20.262 50.9176 20.2952 51.1501 20.3174 51.3936C20.3506 51.626 20.3506 51.8695 20.3174 52.124C20.2067 52.4118 20.0739 52.6719 19.9189 52.9043C19.7751 53.1257 19.598 53.3304 19.3877 53.5186C19.1885 53.6956 18.9616 53.8451 18.707 53.9668C18.4525 54.0775 18.1868 54.1383 17.9101 54.1494C17.7552 54.1162 17.639 54.0775 17.5615 54.0332C17.4951 53.9889 17.4342 53.9447 17.3789 53.9004C17.2904 53.834 17.2184 53.7897 17.1631 53.7676L16.9473 53.668L17.0137 53.4189C17.0469 53.3304 17.0413 53.2529 16.9971 53.1865C16.9639 53.1201 16.8864 53.0316 16.7646 52.9209C16.7204 52.8877 16.6816 52.8545 16.6484 52.8213C16.6152 52.777 16.5765 52.7327 16.5322 52.6885L16.2002 52.3066L16.748 52.1572C17.0801 52.0687 17.3014 51.958 17.4121 51.8252C17.5228 51.6813 17.567 51.4323 17.5449 51.0781C17.2682 51.0228 17.0413 51.0173 16.8643 51.0615C16.6872 51.0947 16.5101 51.1335 16.333 51.1777C16.0784 51.2441 15.8294 51.305 15.5859 51.3604C15.3424 51.4046 15.0768 51.4268 14.7891 51.4268C14.6009 51.4268 14.4017 51.4102 14.1914 51.377L14.0088 51.3604L13.959 51.1777C13.959 51.1556 13.9424 51.1335 13.9092 51.1113C13.887 51.0781 13.8649 51.0505 13.8428 51.0283C13.7874 50.9619 13.721 50.8734 13.6435 50.7627C13.5661 50.652 13.5495 50.5137 13.5937 50.3477C13.5163 50.2259 13.472 50.0986 13.4609 49.9658C13.4167 50.0544 13.3779 50.1429 13.3447 50.2314C13.3226 50.3089 13.3004 50.3864 13.2783 50.4639L13.2119 50.6797L12.9961 50.7129C12.974 50.735 12.9518 50.7682 12.9297 50.8125C12.9186 50.8568 12.9186 50.89 12.9297 50.9121L12.9961 51.0947L12.8301 51.2441C12.8079 51.2773 12.7803 51.305 12.7471 51.3271C12.7139 51.3493 12.6862 51.3714 12.6641 51.3936C12.6419 51.5153 12.6087 51.6315 12.5644 51.7422C12.5312 51.8529 12.4925 51.9635 12.4482 52.0742C12.3929 52.2513 12.3376 52.4229 12.2822 52.5889C12.2379 52.7549 12.2158 52.9209 12.2158 53.0869L12.1494 53.3027C12.0941 53.3913 12.0221 53.4577 11.9336 53.502C11.8561 53.5462 11.7786 53.585 11.7012 53.6182C11.5905 53.6624 11.513 53.7067 11.4687 53.751L11.4189 53.9668L11.1699 54C11.026 54.0332 10.9209 54.0553 10.8545 54.0664C10.7991 54.0775 10.7327 54.083 10.6553 54.083L10.4394 54.0664C10.3066 53.9336 10.196 53.834 10.1074 53.7676C10.0299 53.6901 9.93586 53.6237 9.82519 53.5684L9.72558 53.4355C9.68131 53.347 9.65364 53.2695 9.64257 53.2031C9.6315 53.1257 9.6149 53.0482 9.59277 52.9707C9.57063 52.8268 9.53743 52.7272 9.49316 52.6719L9.24413 52.4229ZM14.54 48.1064C14.3851 48.3278 14.2357 48.5602 14.0918 48.8037C14.1693 48.7926 14.2412 48.7871 14.3076 48.7871C14.3851 48.7871 14.4626 48.7816 14.54 48.7705C14.9274 48.7484 15.2871 48.7207 15.6191 48.6875C15.9512 48.6543 16.3109 48.599 16.6982 48.5215C16.6097 48.112 16.5101 47.6969 16.3994 47.2764C16.2998 46.8447 16.1891 46.4131 16.0674 45.9814L15.9844 46.1475C15.7077 46.4463 15.442 46.7673 15.1875 47.1104C14.9329 47.4535 14.7226 47.7799 14.5566 48.0898L14.54 48.1064ZM29.7969 49.5176C29.7858 49.5729 29.7747 49.6227 29.7637 49.667C29.7526 49.7002 29.7415 49.7334 29.7305 49.7666C29.7194 49.7998 29.7139 49.8441 29.7139 49.8994C29.7139 49.9437 29.7139 50.0046 29.7139 50.082C29.3818 50.6686 28.9613 51.1611 28.4521 51.5596C27.9541 51.958 27.4007 52.3122 26.792 52.6221C26.1943 52.9209 25.569 53.1976 24.916 53.4521C24.263 53.6956 23.6266 53.9613 23.0068 54.249C22.7412 54.1826 22.5365 54.0719 22.3926 53.917C22.2598 53.762 22.1546 53.585 22.0771 53.3857C22.0107 53.1755 21.9609 52.9486 21.9277 52.7051C21.9056 52.4505 21.8835 52.1904 21.8613 51.9248C21.8945 51.8031 21.9388 51.7035 21.9941 51.626C22.0605 51.5374 22.0937 51.4157 22.0937 51.2607C22.1823 50.973 22.2708 50.6908 22.3594 50.4141C22.4479 50.1374 22.5032 49.8551 22.5254 49.5674C22.5586 49.4788 22.6195 49.418 22.708 49.3848C22.7633 48.8535 22.7633 48.3167 22.708 47.7744C22.6637 47.221 22.5752 46.7064 22.4424 46.2305C22.4534 46.1198 22.4645 46.0423 22.4756 45.998C22.4977 45.9427 22.4977 45.904 22.4756 45.8818C22.4645 45.7933 22.4922 45.749 22.5586 45.749C22.6361 45.749 22.7135 45.749 22.791 45.749C22.791 45.583 22.7578 45.417 22.6914 45.251C22.6361 45.085 22.5807 44.8968 22.5254 44.6865C22.6029 44.5205 22.6527 44.36 22.6748 44.2051C22.6969 44.0391 22.7467 43.8952 22.8242 43.7734C23.4219 43.9616 23.9919 44.1885 24.5342 44.4541C25.0876 44.7197 25.6299 44.9134 26.1611 45.0352C26.5596 45.3229 26.9691 45.6107 27.3896 45.8984C27.8102 46.1751 28.192 46.485 28.5351 46.8281C28.8782 47.1602 29.166 47.542 29.3984 47.9736C29.6309 48.4053 29.7637 48.9199 29.7969 49.5176ZM25.8623 50.4307C26.0947 50.3421 26.3216 50.248 26.543 50.1484C26.7754 50.0488 26.9857 49.9382 27.1738 49.8164C27.373 49.6836 27.5501 49.5342 27.7051 49.3682C27.86 49.2021 27.9873 49.0029 28.0869 48.7705C28.0205 48.6377 27.932 48.5215 27.8213 48.4219C27.7106 48.3112 27.5999 48.2116 27.4893 48.123C27.3786 48.0234 27.2679 47.9238 27.1572 47.8242C27.0576 47.7246 26.9746 47.6029 26.9082 47.459C26.7643 47.4368 26.637 47.3981 26.5264 47.3428C26.4157 47.2764 26.305 47.2155 26.1943 47.1602C26.0947 47.0938 25.984 47.0329 25.8623 46.9775C25.7516 46.9222 25.6188 46.889 25.4639 46.8779C25.2204 46.7562 24.999 46.6676 24.7998 46.6123C24.6116 46.557 24.4678 46.485 24.3682 46.3965C24.2907 46.3965 24.2298 46.4131 24.1855 46.4463C24.2962 46.8669 24.3792 47.2653 24.4346 47.6416C24.4899 48.0068 24.5176 48.3776 24.5176 48.7539C24.5286 49.1191 24.512 49.4954 24.4678 49.8828C24.4235 50.2702 24.3626 50.6908 24.2851 51.1445C24.3958 51.1335 24.4954 51.1113 24.584 51.0781C24.6836 51.0339 24.7777 50.9896 24.8662 50.9453C24.9658 50.901 25.0654 50.8623 25.165 50.8291C25.2757 50.7848 25.403 50.7572 25.5469 50.7461C25.5801 50.6797 25.6243 50.6243 25.6797 50.5801C25.7461 50.5358 25.807 50.486 25.8623 50.4307ZM38.081 49.5176C38.07 49.5729 38.0589 49.6227 38.0478 49.667C38.0368 49.7002 38.0257 49.7334 38.0146 49.7666C38.0036 49.7998 37.998 49.8441 37.998 49.8994C37.998 49.9437 37.998 50.0046 37.998 50.082C37.666 50.6686 37.2454 51.1611 36.7363 51.5596C36.2383 51.958 35.6849 52.3122 35.0762 52.6221C34.4785 52.9209 33.8532 53.1976 33.2002 53.4521C32.5472 53.6956 31.9108 53.9613 31.291 54.249C31.0254 54.1826 30.8206 54.0719 30.6768 53.917C30.5439 53.762 30.4388 53.585 30.3613 53.3857C30.2949 53.1755 30.2451 52.9486 30.2119 52.7051C30.1898 52.4505 30.1676 52.1904 30.1455 51.9248C30.1787 51.8031 30.223 51.7035 30.2783 51.626C30.3447 51.5374 30.3779 51.4157 30.3779 51.2607C30.4665 50.973 30.555 50.6908 30.6435 50.4141C30.7321 50.1374 30.7874 49.8551 30.8096 49.5674C30.8428 49.4788 30.9036 49.418 30.9922 49.3848C31.0475 48.8535 31.0475 48.3167 30.9922 47.7744C30.9479 47.221 30.8594 46.7064 30.7266 46.2305C30.7376 46.1198 30.7487 46.0423 30.7598 45.998C30.7819 45.9427 30.7819 45.904 30.7598 45.8818C30.7487 45.7933 30.7764 45.749 30.8428 45.749C30.9202 45.749 30.9977 45.749 31.0752 45.749C31.0752 45.583 31.042 45.417 30.9756 45.251C30.9202 45.085 30.8649 44.8968 30.8096 44.6865C30.887 44.5205 30.9368 44.36 30.959 44.2051C30.9811 44.0391 31.0309 43.8952 31.1084 43.7734C31.706 43.9616 32.276 44.1885 32.8184 44.4541C33.3717 44.7197 33.9141 44.9134 34.4453 45.0352C34.8437 45.3229 35.2532 45.6107 35.6738 45.8984C36.0944 46.1751 36.4762 46.485 36.8193 46.8281C37.1624 47.1602 37.4502 47.542 37.6826 47.9736C37.915 48.4053 38.0478 48.9199 38.081 49.5176ZM34.1465 50.4307C34.3789 50.3421 34.6058 50.248 34.8271 50.1484C35.0596 50.0488 35.2698 49.9382 35.458 49.8164C35.6572 49.6836 35.8343 49.5342 35.9893 49.3682C36.1442 49.2021 36.2715 49.0029 36.3711 48.7705C36.3047 48.6377 36.2161 48.5215 36.1055 48.4219C35.9948 48.3112 35.8841 48.2116 35.7734 48.123C35.6628 48.0234 35.5521 47.9238 35.4414 47.8242C35.3418 47.7246 35.2588 47.6029 35.1924 47.459C35.0485 47.4368 34.9212 47.3981 34.8105 47.3428C34.6999 47.2764 34.5892 47.2155 34.4785 47.1602C34.3789 47.0938 34.2682 47.0329 34.1465 46.9775C34.0358 46.9222 33.903 46.889 33.748 46.8779C33.5045 46.7562 33.2832 46.6676 33.084 46.6123C32.8958 46.557 32.7519 46.485 32.6523 46.3965C32.5749 46.3965 32.514 46.4131 32.4697 46.4463C32.5804 46.8669 32.6634 47.2653 32.7187 47.6416C32.7741 48.0068 32.8018 48.3776 32.8018 48.7539C32.8128 49.1191 32.7962 49.4954 32.7519 49.8828C32.7077 50.2702 32.6468 50.6908 32.5693 51.1445C32.68 51.1335 32.7796 51.1113 32.8682 51.0781C32.9678 51.0339 33.0618 50.9896 33.1504 50.9453C33.25 50.901 33.3496 50.8623 33.4492 50.8291C33.5599 50.7848 33.6872 50.7572 33.831 50.7461C33.8643 50.6797 33.9085 50.6243 33.9639 50.5801C34.0303 50.5358 34.0911 50.486 34.1465 50.4307ZM54.085 46.0146C53.8083 46.0146 53.5094 46.0368 53.1885 46.0811C52.8675 46.1143 52.5521 46.153 52.2422 46.1973C52.0208 46.2305 51.805 46.2581 51.5947 46.2803C51.3955 46.3024 51.2129 46.319 51.0469 46.3301C50.9694 46.5736 50.8919 46.7894 50.8144 46.9775C50.737 47.1657 50.654 47.3483 50.5654 47.5254C50.4769 47.7135 50.3939 47.9072 50.3164 48.1064C50.25 48.2946 50.1836 48.4993 50.1172 48.7207C50.0065 48.8978 49.9124 49.0638 49.835 49.2188C49.7685 49.3626 49.7132 49.5286 49.6689 49.7168C49.5361 49.8828 49.4365 50.0599 49.3701 50.248C49.3037 50.4251 49.2539 50.5801 49.2207 50.7129L49.1543 50.9121C49.0879 50.9785 49.0491 51.0339 49.0381 51.0781C49.027 51.1113 48.9993 51.1445 48.9551 51.1777C48.944 51.2995 48.9053 51.4212 48.8389 51.543C48.8167 51.5983 48.8001 51.6536 48.7891 51.709C48.778 51.7533 48.7725 51.7865 48.7725 51.8086C48.7725 51.9193 48.7448 51.9912 48.6894 52.0244C48.7005 52.0798 48.7005 52.1406 48.6894 52.207C48.6784 52.2624 48.6673 52.3177 48.6562 52.373C48.623 52.5059 48.612 52.611 48.623 52.6885C48.6562 52.7327 48.6839 52.7715 48.706 52.8047C48.7393 52.8379 48.7614 52.8822 48.7725 52.9375C48.8389 52.9818 48.8887 53.0094 48.9219 53.0205C48.9661 53.0537 49.0325 53.0924 49.1211 53.1367L49.2705 53.3027C49.3258 53.6237 49.276 53.8783 49.1211 54.0664C48.9551 54.2767 48.6728 54.3818 48.2744 54.3818H48.0752C48.0198 54.3265 47.9866 54.2822 47.9756 54.249C47.887 54.2158 47.8151 54.1882 47.7598 54.166C47.7044 54.1439 47.6546 54.0996 47.6103 54.0332C47.4665 53.9668 47.3503 53.9115 47.2617 53.8672L47.1123 53.7842C47.1123 53.6624 47.1123 53.596 47.1123 53.585C47.0348 53.4854 46.974 53.3747 46.9297 53.2529C46.8965 53.1312 46.8688 53.0094 46.8467 52.8877C46.8245 52.7881 46.7969 52.694 46.7637 52.6055C46.7415 52.5169 46.7083 52.4395 46.6641 52.373C46.6419 51.7311 46.7028 51.1888 46.8467 50.7461C46.9906 50.3034 47.14 49.8773 47.2949 49.4678C47.3835 49.2464 47.472 49.0251 47.5605 48.8037C47.6491 48.5713 47.7266 48.3333 47.793 48.0898L47.9424 47.9238C48.0198 47.7467 48.0807 47.6029 48.125 47.4922C48.1803 47.3704 48.2357 47.2487 48.291 47.127C48.3242 47.0495 48.3519 46.9775 48.374 46.9111C48.4072 46.8337 48.4349 46.7673 48.457 46.7119C48.3906 46.7119 48.3297 46.7174 48.2744 46.7285C48.2191 46.7285 48.1637 46.734 48.1084 46.7451C48.042 46.7562 47.9811 46.7673 47.9258 46.7783C47.8704 46.7783 47.8151 46.7783 47.7598 46.7783C47.6823 46.7783 47.6269 46.7728 47.5937 46.7617C47.472 46.8171 47.3392 46.8447 47.1953 46.8447H47.0293C46.9961 46.8447 46.9629 46.8447 46.9297 46.8447C46.9075 46.8337 46.8854 46.8281 46.8633 46.8281C46.7526 46.8281 46.6641 46.8447 46.5976 46.8779C46.4648 46.8779 46.3376 46.8779 46.2158 46.8779H46.0498C46.0277 46.8779 46 46.8835 45.9668 46.8945C45.9336 46.8945 45.9059 46.8945 45.8838 46.8945C45.8063 46.8945 45.7233 46.889 45.6348 46.8779C45.5462 46.8558 45.4521 46.8171 45.3525 46.7617C45.2197 46.5846 45.1312 46.4906 45.0869 46.4795L44.9375 46.2803C44.9264 46.2139 44.9098 46.153 44.8877 46.0977C44.8656 46.0312 44.8434 45.9593 44.8213 45.8818C44.777 45.7712 44.7327 45.6549 44.6885 45.5332C44.6553 45.4004 44.6387 45.2454 44.6387 45.0684C44.6497 44.9798 44.6719 44.9134 44.7051 44.8691C44.7383 44.8249 44.7659 44.7861 44.7881 44.7529L44.8379 44.5039L45.0537 44.5205H45.5185C45.8727 44.5205 46.2324 44.5094 46.5976 44.4873C46.9629 44.4541 47.3392 44.4209 47.7266 44.3877C47.9479 44.3656 48.1693 44.3434 48.3906 44.3213C48.623 44.2992 48.861 44.277 49.1045 44.2549C49.1488 44.1553 49.193 44.0612 49.2373 43.9727L49.4033 43.8896C49.6025 43.8786 49.7409 43.9062 49.8184 43.9727C49.9069 44.028 49.9788 44.0833 50.0342 44.1387C50.2777 44.1165 50.5212 44.0944 50.7646 44.0723C51.0192 44.0391 51.2738 44.0003 51.5283 43.9561C51.9046 43.9007 52.2809 43.8509 52.6572 43.8066C53.0446 43.7624 53.4154 43.7402 53.7695 43.7402C53.9245 43.7402 54.0739 43.7458 54.2178 43.7568C54.3616 43.7679 54.4945 43.7845 54.6162 43.8066L54.7822 43.9229C54.8154 43.9893 54.8597 44.0501 54.915 44.1055C54.9814 44.1608 55.0478 44.2161 55.1143 44.2715C55.2471 44.3932 55.3799 44.5371 55.5127 44.7031C55.6455 44.8691 55.6953 45.1126 55.6621 45.4336C55.5736 45.5664 55.5072 45.6439 55.4629 45.666L55.3135 45.8652L55.1475 45.8486C55.081 45.8486 55.0202 45.8597 54.9648 45.8818C54.9095 45.8929 54.8542 45.9095 54.7988 45.9316C54.7545 45.9538 54.7103 45.9759 54.666 45.998C54.6217 46.0091 54.5719 46.0202 54.5166 46.0312C54.417 46.0312 54.334 46.0312 54.2676 46.0312C54.2122 46.0202 54.1514 46.0146 54.085 46.0146ZM61.9541 49.0195C61.943 49.1523 61.9541 49.2796 61.9873 49.4014C62.0205 49.5231 62.0592 49.6449 62.1035 49.7666C62.1588 49.8773 62.2087 49.9935 62.2529 50.1152C62.2972 50.237 62.3304 50.3587 62.3525 50.4805C62.3747 50.6354 62.3747 50.807 62.3525 50.9951C62.3304 51.1722 62.2917 51.3493 62.2363 51.5264C62.181 51.6924 62.109 51.8473 62.0205 51.9912C61.932 52.124 61.8268 52.2236 61.7051 52.29C61.5501 52.4893 61.362 52.6442 61.1406 52.7549C60.9193 52.8656 60.7145 52.9984 60.5264 53.1533C60.4046 53.2308 60.2663 53.2861 60.1113 53.3193C59.9674 53.3525 59.818 53.3857 59.6631 53.4189C59.5413 53.4854 59.3975 53.5573 59.2314 53.6348C59.0654 53.7012 58.8939 53.7676 58.7168 53.834C58.5397 53.8893 58.3626 53.9336 58.1855 53.9668C58.0085 53.9889 57.8535 53.9945 57.7207 53.9834C57.3887 54.1051 57.0622 54.1826 56.7412 54.2158C56.4313 54.2601 56.0661 54.238 55.6455 54.1494C55.2471 54.2048 54.8763 54.1882 54.5332 54.0996C54.2012 54.0111 53.9023 53.8727 53.6367 53.6846C53.3822 53.4854 53.1553 53.2529 52.956 52.9873C52.7679 52.7106 52.6129 52.4229 52.4912 52.124C52.4027 51.4932 52.4248 50.9232 52.5576 50.4141C52.6904 49.8939 52.8786 49.418 53.1221 48.9863C53.3766 48.5436 53.6644 48.1396 53.9853 47.7744C54.3063 47.3981 54.6162 47.0329 54.915 46.6787C54.9814 46.7008 55.0312 46.7008 55.0644 46.6787C55.1087 46.6455 55.1475 46.6068 55.1807 46.5625C55.2139 46.5072 55.2471 46.4574 55.2803 46.4131C55.3245 46.3688 55.3743 46.3411 55.4297 46.3301C55.5072 46.1641 55.6178 46.0423 55.7617 45.9648C55.9167 45.8763 56.0384 45.7546 56.1269 45.5996C56.2266 45.5775 56.3096 45.5443 56.376 45.5C56.4424 45.4557 56.5032 45.4059 56.5586 45.3506C56.625 45.2952 56.6914 45.2454 56.7578 45.2012C56.8242 45.1458 56.9017 45.1071 56.9902 45.085V44.9023C57.1894 44.8138 57.3333 44.7142 57.4219 44.6035C57.5215 44.4818 57.6377 44.3379 57.7705 44.1719C57.8701 44.1608 57.9476 44.1553 58.0029 44.1553C58.0693 44.1553 58.1634 44.1442 58.2851 44.1221C58.3737 43.9671 58.4512 43.8509 58.5176 43.7734C58.595 43.696 58.7057 43.613 58.8496 43.5244C58.9824 43.5908 59.1263 43.6351 59.2812 43.6572C59.4473 43.6794 59.5911 43.7513 59.7129 43.873C59.724 43.9837 59.7572 44.0723 59.8125 44.1387C59.8678 44.194 59.9287 44.2493 59.9951 44.3047C60.0615 44.349 60.1224 44.3988 60.1777 44.4541C60.2441 44.5094 60.2884 44.5869 60.3105 44.6865C60.3548 44.6976 60.3825 44.6921 60.3935 44.6699C60.4157 44.6478 60.4489 44.6423 60.4932 44.6533C60.5264 44.8083 60.5651 44.9134 60.6094 44.9688C60.6536 45.013 60.6979 45.1071 60.7422 45.251C60.6868 45.3617 60.6426 45.4779 60.6094 45.5996C60.5872 45.7103 60.5208 45.7933 60.4101 45.8486C60.3991 45.9261 60.4212 45.9704 60.4766 45.9814C60.5319 45.9814 60.5651 46.0091 60.5762 46.0645C60.5872 46.1641 60.5706 46.236 60.5264 46.2803C60.792 46.7119 61.0299 47.1712 61.2402 47.6582C61.4505 48.1341 61.6885 48.5879 61.9541 49.0195ZM59.8789 50.5967C59.9232 50.4749 59.9785 50.3753 60.0449 50.2979C60.1224 50.2204 60.1667 50.1042 60.1777 49.9492C60.1224 49.8607 60.0892 49.7943 60.0781 49.75C60.067 49.6947 60.0615 49.6117 60.0615 49.501C59.818 49.1579 59.6077 48.7926 59.4307 48.4053C59.2536 48.0068 59.0544 47.6361 58.833 47.293C58.8109 47.3372 58.7721 47.3815 58.7168 47.4258C58.6615 47.4701 58.6006 47.459 58.5342 47.3926C58.512 47.4811 58.4733 47.5475 58.418 47.5918C58.3626 47.625 58.3018 47.6416 58.2353 47.6416C58.1689 47.6305 58.097 47.6139 58.0195 47.5918C57.9531 47.5586 57.8922 47.5199 57.8369 47.4756C57.5159 47.7301 57.195 47.9792 56.874 48.2227C56.5531 48.4661 56.2653 48.7484 56.0107 49.0693C55.9665 49.0915 55.9388 49.1025 55.9277 49.1025C55.9167 49.0915 55.8835 49.097 55.8281 49.1191C55.7396 49.3294 55.6289 49.5231 55.4961 49.7002C55.3743 49.8662 55.2526 50.0378 55.1309 50.2148C55.0091 50.3919 54.904 50.5801 54.8154 50.7793C54.7269 50.9785 54.6771 51.2109 54.666 51.4766C54.8542 51.6315 55.0755 51.7256 55.3301 51.7588C55.5846 51.792 55.8447 51.7975 56.1103 51.7754C56.387 51.7533 56.6527 51.7201 56.9072 51.6758C57.1728 51.6204 57.4163 51.5928 57.6377 51.5928C58.1025 51.4821 58.501 51.3382 58.833 51.1611C59.165 50.973 59.5137 50.7848 59.8789 50.5967ZM76.165 54.0332C75.9879 54.0443 75.7666 54.0387 75.501 54.0166C75.2464 53.9945 75.0085 54.0332 74.7871 54.1328C74.2005 54.1107 73.6029 54.0387 72.9941 53.917C72.3854 53.7952 71.8265 53.6458 71.3174 53.4688C71.2067 53.347 71.096 53.2363 70.9853 53.1367C70.8747 53.026 70.7253 52.9486 70.5371 52.9043C70.2715 52.694 70.0557 52.4395 69.8896 52.1406C69.7236 51.8307 69.5908 51.5042 69.4912 51.1611C69.3916 50.818 69.3252 50.4694 69.292 50.1152C69.2588 49.75 69.2477 49.4014 69.2588 49.0693C69.4248 48.5713 69.6572 48.1452 69.956 47.791C70.2659 47.4258 70.5814 47.0661 70.9023 46.7119C71.0462 46.6455 71.1514 46.5791 71.2178 46.5127C71.2952 46.4352 71.3727 46.3688 71.4502 46.3135C71.5387 46.2471 71.6217 46.1862 71.6992 46.1309C71.7878 46.0645 71.8652 45.987 71.9316 45.8984C72.1641 45.8431 72.3633 45.7656 72.5293 45.666C72.7064 45.5553 72.8779 45.4447 73.0439 45.334C73.21 45.2122 73.3815 45.1016 73.5586 45.002C73.7357 44.9023 73.9404 44.8249 74.1728 44.7695C74.2614 44.6699 74.3665 44.5924 74.4883 44.5371C74.61 44.4707 74.7318 44.4098 74.8535 44.3545C74.9863 44.2881 75.1081 44.2217 75.2187 44.1553C75.3405 44.0889 75.4346 44.0003 75.501 43.8896C75.5563 43.9782 75.6338 44.0114 75.7334 43.9893C75.833 43.9561 75.9271 43.9229 76.0156 43.8896C76.071 43.8786 76.1152 43.8896 76.1484 43.9229C76.1927 43.9561 76.2314 43.9893 76.2646 44.0225C76.2978 44.0557 76.3255 44.0778 76.3476 44.0889C76.3809 44.0889 76.4085 44.0612 76.4307 44.0059C76.486 44.0059 76.5026 44.0335 76.4805 44.0889C76.4583 44.1442 76.4417 44.1829 76.4307 44.2051C76.5192 44.194 76.5911 44.2161 76.6465 44.2715C76.7129 44.3158 76.8125 44.3434 76.9453 44.3545C76.9896 44.4098 77.0006 44.4541 76.9785 44.4873C76.9564 44.5094 76.9453 44.5537 76.9453 44.6201C77.2773 44.7197 77.4876 44.8802 77.5762 45.1016C77.6647 45.3118 77.6702 45.5332 77.5928 45.7656C77.5153 45.998 77.3769 46.2139 77.1777 46.4131C76.9785 46.6123 76.7627 46.7451 76.5303 46.8115C75.999 46.9554 75.4954 47.1159 75.0195 47.293C74.5547 47.459 74.1728 47.708 73.874 48.04C73.6084 48.1175 73.3704 48.2227 73.1601 48.3555C72.9609 48.4772 72.7672 48.6211 72.5791 48.7871C72.402 48.9421 72.2305 49.1081 72.0644 49.2852C71.9095 49.4512 71.7435 49.6172 71.5664 49.7832C71.5775 49.9382 71.5498 50.0599 71.4834 50.1484C71.4281 50.2259 71.3727 50.3089 71.3174 50.3975C71.3395 50.5635 71.3782 50.7129 71.4336 50.8457C71.4889 50.9674 71.5498 51.0892 71.6162 51.2109C72.3467 51.4323 73.1214 51.5706 73.9404 51.626C74.7705 51.6813 75.6006 51.7145 76.4307 51.7256C76.5081 51.8363 76.5967 51.9414 76.6963 52.041C76.807 52.1296 76.9066 52.2292 76.9951 52.3398C77.0837 52.4395 77.1556 52.5557 77.2109 52.6885C77.2663 52.8102 77.2773 52.9652 77.2441 53.1533C77.0892 53.3193 76.9176 53.4743 76.7295 53.6182C76.5413 53.751 76.3532 53.8893 76.165 54.0332ZM87.6699 49.0195C87.6588 49.1523 87.6699 49.2796 87.7031 49.4014C87.7363 49.5231 87.7751 49.6449 87.8193 49.7666C87.8747 49.8773 87.9245 49.9935 87.9687 50.1152C88.013 50.237 88.0462 50.3587 88.0684 50.4805C88.0905 50.6354 88.0905 50.807 88.0684 50.9951C88.0462 51.1722 88.0075 51.3493 87.9521 51.5264C87.8968 51.6924 87.8249 51.8473 87.7363 51.9912C87.6478 52.124 87.5426 52.2236 87.4209 52.29C87.2659 52.4893 87.0778 52.6442 86.8564 52.7549C86.6351 52.8656 86.4303 52.9984 86.2422 53.1533C86.1204 53.2308 85.9821 53.2861 85.8271 53.3193C85.6833 53.3525 85.5338 53.3857 85.3789 53.4189C85.2572 53.4854 85.1133 53.5573 84.9473 53.6348C84.7812 53.7012 84.6097 53.7676 84.4326 53.834C84.2555 53.8893 84.0784 53.9336 83.9014 53.9668C83.7243 53.9889 83.5693 53.9945 83.4365 53.9834C83.1045 54.1051 82.778 54.1826 82.457 54.2158C82.1471 54.2601 81.7819 54.238 81.3613 54.1494C80.9629 54.2048 80.5921 54.1882 80.249 54.0996C79.917 54.0111 79.6182 53.8727 79.3525 53.6846C79.098 53.4854 78.8711 53.2529 78.6719 52.9873C78.4837 52.7106 78.3288 52.4229 78.207 52.124C78.1185 51.4932 78.1406 50.9232 78.2734 50.4141C78.4062 49.8939 78.5944 49.418 78.8379 48.9863C79.0924 48.5436 79.3802 48.1396 79.7012 47.7744C80.0221 47.3981 80.332 47.0329 80.6309 46.6787C80.6973 46.7008 80.7471 46.7008 80.7803 46.6787C80.8245 46.6455 80.8633 46.6068 80.8965 46.5625C80.9297 46.5072 80.9629 46.4574 80.9961 46.4131C81.0404 46.3688 81.0902 46.3411 81.1455 46.3301C81.223 46.1641 81.3337 46.0423 81.4775 45.9648C81.6325 45.8763 81.7542 45.7546 81.8428 45.5996C81.9424 45.5775 82.0254 45.5443 82.0918 45.5C82.1582 45.4557 82.2191 45.4059 82.2744 45.3506C82.3408 45.2952 82.4072 45.2454 82.4736 45.2012C82.54 45.1458 82.6175 45.1071 82.706 45.085V44.9023C82.9053 44.8138 83.0491 44.7142 83.1377 44.6035C83.2373 44.4818 83.3535 44.3379 83.4863 44.1719C83.5859 44.1608 83.6634 44.1553 83.7187 44.1553C83.7851 44.1553 83.8792 44.1442 84.001 44.1221C84.0895 43.9671 84.167 43.8509 84.2334 43.7734C84.3109 43.696 84.4215 43.613 84.5654 43.5244C84.6982 43.5908 84.8421 43.6351 84.9971 43.6572C85.1631 43.6794 85.307 43.7513 85.4287 43.873C85.4398 43.9837 85.473 44.0723 85.5283 44.1387C85.5837 44.194 85.6445 44.2493 85.7109 44.3047C85.7773 44.349 85.8382 44.3988 85.8935 44.4541C85.96 44.5094 86.0042 44.5869 86.0264 44.6865C86.0706 44.6976 86.0983 44.6921 86.1094 44.6699C86.1315 44.6478 86.1647 44.6423 86.209 44.6533C86.2422 44.8083 86.2809 44.9134 86.3252 44.9688C86.3695 45.013 86.4137 45.1071 86.458 45.251C86.4027 45.3617 86.3584 45.4779 86.3252 45.5996C86.3031 45.7103 86.2366 45.7933 86.126 45.8486C86.1149 45.9261 86.137 45.9704 86.1924 45.9814C86.2477 45.9814 86.2809 46.0091 86.292 46.0645C86.3031 46.1641 86.2865 46.236 86.2422 46.2803C86.5078 46.7119 86.7458 47.1712 86.956 47.6582C87.1663 48.1341 87.4043 48.5879 87.6699 49.0195ZM85.5947 50.5967C85.639 50.4749 85.6943 50.3753 85.7607 50.2979C85.8382 50.2204 85.8825 50.1042 85.8935 49.9492C85.8382 49.8607 85.805 49.7943 85.7939 49.75C85.7829 49.6947 85.7773 49.6117 85.7773 49.501C85.5338 49.1579 85.3236 48.7926 85.1465 48.4053C84.9694 48.0068 84.7702 47.6361 84.5488 47.293C84.5267 47.3372 84.4879 47.3815 84.4326 47.4258C84.3773 47.4701 84.3164 47.459 84.25 47.3926C84.2279 47.4811 84.1891 47.5475 84.1338 47.5918C84.0784 47.625 84.0176 47.6416 83.9512 47.6416C83.8848 47.6305 83.8128 47.6139 83.7353 47.5918C83.6689 47.5586 83.6081 47.5199 83.5527 47.4756C83.2318 47.7301 82.9108 47.9792 82.5898 48.2227C82.2689 48.4661 81.9811 48.7484 81.7266 49.0693C81.6823 49.0915 81.6546 49.1025 81.6435 49.1025C81.6325 49.0915 81.5993 49.097 81.5439 49.1191C81.4554 49.3294 81.3447 49.5231 81.2119 49.7002C81.0902 49.8662 80.9684 50.0378 80.8467 50.2148C80.7249 50.3919 80.6198 50.5801 80.5312 50.7793C80.4427 50.9785 80.3929 51.2109 80.3818 51.4766C80.57 51.6315 80.7913 51.7256 81.0459 51.7588C81.3004 51.792 81.5605 51.7975 81.8262 51.7754C82.1029 51.7533 82.3685 51.7201 82.623 51.6758C82.8887 51.6204 83.1322 51.5928 83.3535 51.5928C83.8184 51.4821 84.2168 51.3382 84.5488 51.1611C84.8809 50.973 85.2295 50.7848 85.5947 50.5967ZM100.171 53.7012C100.06 53.7565 99.9551 53.8063 99.8555 53.8506C99.7669 53.8949 99.6618 53.917 99.54 53.917C99.1084 53.596 98.8815 53.0371 98.8594 52.2402C98.8483 51.4434 99.0198 50.4307 99.374 49.2021C99.4294 49.1689 99.457 49.1025 99.457 49.0029L99.3076 48.8369C99.2633 48.8369 99.2191 48.8424 99.1748 48.8535C99.1416 48.8646 99.1139 48.9033 99.0918 48.9697C98.804 49.18 98.4886 49.4014 98.1455 49.6338C97.8024 49.8551 97.4427 50.0654 97.0664 50.2646C96.7012 50.4528 96.3249 50.6077 95.9375 50.7295C95.5612 50.8512 95.1904 50.9121 94.8252 50.9121C93.8955 50.9121 93.1982 50.4417 92.7334 49.501L92.6006 49.252L92.4678 49.4678C92.4346 49.512 92.3848 49.6061 92.3184 49.75C92.2519 49.8828 92.1855 50.0378 92.1191 50.2148C92.0527 50.3919 91.9919 50.5745 91.9365 50.7627C91.8922 50.9398 91.8756 51.0947 91.8867 51.2275C91.7871 51.3271 91.682 51.4434 91.5713 51.5762C91.4606 51.709 91.3776 51.8584 91.3223 52.0244C91.3001 52.113 91.3112 52.196 91.3555 52.2734C91.3333 52.373 91.2835 52.4505 91.206 52.5059C91.1618 52.5612 91.112 52.6165 91.0566 52.6719C91.0124 52.7161 90.9736 52.766 90.9404 52.8213C90.9183 52.8766 90.9017 52.932 90.8906 52.9873C90.8906 53.0426 90.8851 53.098 90.874 53.1533C90.874 53.2308 90.8629 53.3027 90.8408 53.3691C90.6527 53.7565 90.5032 54.0055 90.3926 54.1162C90.2819 54.238 90.1325 54.2988 89.9443 54.2988C89.8558 54.2988 89.7119 54.2822 89.5127 54.249C89.3688 54.0941 89.236 53.8838 89.1143 53.6182C89.0036 53.3415 88.915 53.0482 88.8486 52.7383C88.7933 52.4284 88.7656 52.1185 88.7656 51.8086C88.7767 51.4876 88.832 51.2109 88.9316 50.9785C88.9316 50.9674 88.9759 50.8568 89.0644 50.6465C89.153 50.4362 89.2637 50.165 89.3965 49.833C89.5404 49.501 89.7008 49.1357 89.8779 48.7373C90.055 48.3278 90.2321 47.9349 90.4092 47.5586C90.5863 47.1712 90.7523 46.8171 90.9072 46.4961C91.0732 46.1751 91.2116 45.9316 91.3223 45.7656C91.4108 45.6328 91.4883 45.5111 91.5547 45.4004C91.6322 45.2786 91.7041 45.1624 91.7705 45.0518C91.9697 44.7087 92.1579 44.4264 92.335 44.2051C92.5231 43.9727 92.7943 43.79 93.1484 43.6572C93.3919 43.7568 93.569 43.873 93.6797 44.0059L93.7129 44.1885C93.7572 44.2992 93.8236 44.3545 93.9121 44.3545C94.0338 44.3877 94.1335 44.4209 94.2109 44.4541C94.2995 44.4762 94.3935 44.4984 94.4932 44.5205C94.5706 44.609 94.6426 44.7142 94.709 44.8359C94.7975 44.9688 94.8805 45.1016 94.958 45.2344C95.0465 45.3561 95.1129 45.4834 95.1572 45.6162C95.2126 45.738 95.2402 45.8652 95.2402 45.998C95.2513 46.1309 95.2292 46.2692 95.1738 46.4131L95.1904 46.5791C95.2458 46.6787 95.2568 46.8171 95.2236 46.9941C95.2126 47.0716 95.207 47.1546 95.207 47.2432C95.207 47.3206 95.2181 47.4092 95.2402 47.5088C95.4394 47.6637 95.6165 47.7412 95.7715 47.7412C95.9486 47.7412 96.109 47.7025 96.2529 47.625C96.4079 47.5365 96.5518 47.4479 96.6846 47.3594C96.7731 47.293 96.8616 47.2376 96.9502 47.1934C97.0387 47.138 97.1273 47.1048 97.2158 47.0938C97.415 46.9056 97.5921 46.7396 97.7471 46.5957C97.9131 46.4518 98.0846 46.3079 98.2617 46.1641C98.5937 45.8984 98.9147 45.6107 99.2246 45.3008C99.5345 44.9909 99.7835 44.6035 99.9717 44.1387C100.082 44.0723 100.199 44.0391 100.32 44.0391C100.442 44.0391 100.569 44.0667 100.702 44.1221C100.835 44.1774 100.962 44.2327 101.084 44.2881C101.117 44.3102 101.145 44.3268 101.167 44.3379C101.2 44.349 101.228 44.36 101.25 44.3711C101.25 44.4818 101.294 44.5758 101.383 44.6533C101.427 44.6865 101.455 44.7087 101.466 44.7197C101.477 44.7308 101.493 44.7419 101.516 44.7529C101.682 44.8415 101.787 44.93 101.831 45.0186C101.909 45.2731 102.047 45.4668 102.246 45.5996C102.224 45.7103 102.224 45.8154 102.246 45.915C102.279 46.0036 102.318 46.0977 102.362 46.1973C102.373 46.2305 102.384 46.2637 102.396 46.2969C102.407 46.3301 102.423 46.3688 102.445 46.4131L102.13 46.3799L102.18 46.6953C102.202 46.8503 102.185 47.0218 102.13 47.21C102.086 47.3981 102.03 47.5475 101.964 47.6582C101.975 47.946 101.98 48.1729 101.98 48.3389C101.992 48.4938 101.986 48.6432 101.964 48.7871C101.942 48.9199 101.909 49.0472 101.864 49.1689C101.831 49.2907 101.781 49.4235 101.715 49.5674C101.759 50.2757 101.676 50.9232 101.466 51.5098C101.267 52.0853 101.056 52.6276 100.835 53.1367C100.813 53.1921 100.785 53.2474 100.752 53.3027C100.73 53.3581 100.708 53.4134 100.686 53.4688C100.586 53.502 100.497 53.5407 100.42 53.585C100.342 53.6182 100.259 53.6569 100.171 53.7012ZM108.787 43.707C109.252 43.7624 109.667 43.8564 110.032 43.9893C110.397 44.1221 110.707 44.2992 110.962 44.5205C111.139 44.7972 111.305 45.096 111.46 45.417C111.626 45.738 111.748 46.0755 111.825 46.4297C111.914 46.7728 111.952 47.127 111.941 47.4922C111.941 47.8574 111.864 48.2282 111.709 48.6045C111.388 49.0029 110.995 49.3294 110.53 49.584C110.076 49.8275 109.584 50.0267 109.053 50.1816C108.521 50.3366 107.968 50.4694 107.393 50.5801C106.828 50.6908 106.275 50.8014 105.732 50.9121C105.743 51.1667 105.743 51.4378 105.732 51.7256C105.732 52.0023 105.705 52.2845 105.649 52.5723C105.605 52.849 105.533 53.1201 105.434 53.3857C105.334 53.6514 105.201 53.8949 105.035 54.1162C104.847 54.1162 104.653 54.1383 104.454 54.1826C104.255 54.238 104.078 54.2822 103.923 54.3154C103.845 54.2712 103.773 54.2269 103.707 54.1826C103.652 54.1494 103.569 54.1273 103.458 54.1162C103.48 54.0055 103.452 53.8949 103.375 53.7842C103.298 53.6624 103.22 53.5407 103.143 53.4189C103.065 53.2972 103.01 53.181 102.977 53.0703C102.954 52.9596 103.01 52.8545 103.143 52.7549C103.065 52.6774 103.026 52.5778 103.026 52.4561C103.104 52.3232 103.17 52.1406 103.226 51.9082C103.292 51.6758 103.342 51.4489 103.375 51.2275C103.419 50.9951 103.43 50.7848 103.408 50.5967C103.386 50.4085 103.275 50.2702 103.076 50.1816C103.087 50.1595 103.109 50.1484 103.143 50.1484C103.176 50.1484 103.209 50.1429 103.242 50.1318C103.154 50.0654 103.098 49.9714 103.076 49.8496C103.065 49.7279 103.026 49.6227 102.96 49.5342C102.982 49.4788 102.999 49.429 103.01 49.3848C103.021 49.3405 103.06 49.3239 103.126 49.335C103.093 49.1357 103.093 48.9476 103.126 48.7705C103.17 48.5934 103.231 48.4274 103.309 48.2725C103.386 48.1064 103.48 47.946 103.591 47.791C103.701 47.6361 103.807 47.4811 103.906 47.3262C103.984 47.3151 104.028 47.3262 104.039 47.3594C104.061 47.3926 104.1 47.387 104.155 47.3428C104.299 47.2321 104.399 47.1159 104.454 46.9941C104.509 46.8724 104.537 46.734 104.537 46.5791C104.615 46.3467 104.709 46.1143 104.819 45.8818C104.93 45.6383 105.052 45.417 105.185 45.2178C105.317 45.0186 105.461 44.8415 105.616 44.6865C105.782 44.5316 105.954 44.4154 106.131 44.3379C106.264 44.2272 106.43 44.1276 106.629 44.0391C106.828 43.9395 107.044 43.8675 107.276 43.8232C107.509 43.7679 107.741 43.7402 107.974 43.7402C108.217 43.7292 108.438 43.7513 108.638 43.8066C108.693 43.8288 108.721 43.8177 108.721 43.7734C108.732 43.7292 108.754 43.707 108.787 43.707ZM108.106 47.6748C108.383 47.5531 108.676 47.459 108.986 47.3926C109.307 47.3151 109.573 47.1768 109.783 46.9775C109.65 46.8558 109.457 46.7507 109.202 46.6621C108.948 46.5625 108.671 46.5016 108.372 46.4795C108.073 46.4574 107.769 46.485 107.459 46.5625C107.16 46.6289 106.9 46.7617 106.679 46.9609C106.612 47.1602 106.557 47.3206 106.513 47.4424C106.468 47.5531 106.408 47.6914 106.33 47.8574C106.352 47.9128 106.385 47.957 106.43 47.9902C106.485 48.0124 106.524 48.0511 106.546 48.1064C106.8 47.9736 107.055 47.9017 107.31 47.8906C107.575 47.8685 107.841 47.7965 108.106 47.6748ZM119.894 52.6055C119.827 52.7936 119.728 52.9873 119.595 53.1865C119.473 53.3747 119.324 53.5462 119.146 53.7012C118.98 53.8451 118.792 53.9668 118.582 54.0664C118.372 54.166 118.15 54.2214 117.918 54.2324C117.774 54.1992 117.674 54.1605 117.619 54.1162C117.575 54.083 117.525 54.0498 117.47 54.0166C117.437 53.9945 117.403 53.9779 117.37 53.9668C117.348 53.9447 117.326 53.9281 117.304 53.917L117.104 53.834L117.171 53.6182C117.193 53.5296 117.187 53.4632 117.154 53.4189C117.121 53.3636 117.055 53.2917 116.955 53.2031C116.922 53.1699 116.889 53.1367 116.855 53.1035C116.822 53.0703 116.795 53.0371 116.772 53.0039L116.49 52.6885L116.938 52.5723C117.215 52.4948 117.398 52.3952 117.486 52.2734C117.586 52.1517 117.625 51.9469 117.603 51.6592C117.381 51.6149 117.193 51.6094 117.038 51.6426C116.894 51.6758 116.745 51.7145 116.59 51.7588C116.391 51.8141 116.186 51.8639 115.976 51.9082C115.776 51.9414 115.555 51.958 115.312 51.958C115.223 51.958 115.14 51.958 115.062 51.958C114.985 51.9469 114.902 51.9359 114.813 51.9248L114.647 51.8916C114.625 51.7699 114.603 51.7035 114.581 51.6924C114.559 51.6702 114.537 51.6481 114.515 51.626C114.459 51.5706 114.398 51.4987 114.332 51.4102C114.277 51.3105 114.266 51.1888 114.299 51.0449C114.243 50.9453 114.21 50.8457 114.199 50.7461C114.133 50.8789 114.083 51.0173 114.05 51.1611L113.983 51.3271L113.817 51.3604C113.795 51.3714 113.779 51.3991 113.768 51.4434C113.757 51.4766 113.751 51.5042 113.751 51.5264L113.668 51.8086C113.646 51.8307 113.624 51.8529 113.602 51.875C113.579 51.8861 113.557 51.9027 113.535 51.9248C113.513 52.0244 113.485 52.124 113.452 52.2236C113.419 52.3232 113.386 52.4173 113.353 52.5059C113.297 52.6497 113.247 52.7936 113.203 52.9375C113.17 53.0703 113.159 53.2031 113.17 53.3359L113.104 53.5186C113.048 53.585 112.987 53.6403 112.921 53.6846C112.854 53.7178 112.788 53.751 112.722 53.7842C112.7 53.8063 112.666 53.8285 112.622 53.8506C112.589 53.8617 112.561 53.8727 112.539 53.8838L112.489 54.0664L112.29 54.0996C112.168 54.1217 112.08 54.1383 112.024 54.1494C111.98 54.1605 111.925 54.166 111.858 54.166L111.692 54.1494C111.571 54.0498 111.477 53.9723 111.41 53.917C111.344 53.8506 111.266 53.7897 111.178 53.7344C111.078 53.6016 111.023 53.502 111.012 53.4355C111.001 53.3691 110.99 53.3083 110.979 53.2529C110.956 53.1865 110.945 53.1312 110.945 53.0869C110.934 53.0426 110.918 53.0094 110.896 52.9873L110.68 52.7881L110.862 52.6387L110.879 52.3564C111.1 51.792 111.333 51.2497 111.576 50.7295C111.831 50.2093 112.091 49.6781 112.356 49.1357C112.445 48.9587 112.528 48.7816 112.605 48.6045C112.694 48.4274 112.783 48.2503 112.871 48.0732C112.86 48.04 112.854 48.0013 112.854 47.957C112.854 47.9128 112.866 47.863 112.888 47.8076C113.009 47.6195 113.109 47.4535 113.187 47.3096C113.264 47.1546 113.341 46.9997 113.419 46.8447C113.507 46.6566 113.596 46.474 113.685 46.2969C113.784 46.1198 113.906 45.9372 114.05 45.749L114.315 45.6328C114.349 45.6217 114.387 45.6107 114.432 45.5996C114.476 45.5775 114.526 45.5664 114.581 45.5664L114.83 45.5996C115.14 45.4557 115.411 45.2565 115.644 45.002C115.876 44.7363 116.114 44.4209 116.357 44.0557L116.523 43.8232L116.739 43.9561C116.795 43.9893 116.872 44.0225 116.972 44.0557C117.071 44.0778 117.176 44.1055 117.287 44.1387C117.486 44.1829 117.674 44.2327 117.852 44.2881C118.029 44.3434 118.173 44.4264 118.283 44.5371C118.35 44.7142 118.388 44.847 118.399 44.9355C118.41 45.0241 118.427 45.1126 118.449 45.2012C118.482 45.3893 118.51 45.5775 118.532 45.7656C118.565 45.9538 118.588 46.1641 118.599 46.3965C118.654 46.5846 118.698 46.7728 118.731 46.9609C118.776 47.138 118.814 47.3206 118.848 47.5088C118.903 47.7744 118.958 48.0345 119.014 48.2891C119.069 48.5326 119.141 48.765 119.229 48.9863C119.318 48.9863 119.373 48.9919 119.396 49.0029C119.451 48.9808 119.506 48.9642 119.562 48.9531C119.628 48.9421 119.7 48.931 119.777 48.9199L119.96 48.9033L120.026 49.0693C120.037 49.1247 120.093 49.18 120.192 49.2354C120.336 49.2464 120.441 49.2796 120.508 49.335C120.574 49.3792 120.635 49.429 120.69 49.4844C120.735 49.5286 120.779 49.5618 120.823 49.584L121.072 49.6836L120.939 49.9326C120.829 50.1318 120.668 50.3255 120.458 50.5137C120.259 50.6908 120.032 50.8402 119.777 50.9619C119.788 51.0283 119.794 51.0947 119.794 51.1611C119.805 51.2165 119.822 51.2773 119.844 51.3438C119.877 51.5319 119.905 51.7256 119.927 51.9248C119.949 52.124 119.949 52.3288 119.927 52.5391L119.894 52.6055ZM115.096 49.7334C115.428 49.7113 115.727 49.6891 115.992 49.667C116.269 49.6338 116.573 49.584 116.905 49.5176C116.828 49.1855 116.745 48.8424 116.656 48.4883C116.568 48.123 116.474 47.7633 116.374 47.4092L116.274 47.5752C116.053 47.8076 115.837 48.0677 115.627 48.3555C115.428 48.6432 115.256 48.9144 115.112 49.1689C115.046 49.2686 114.979 49.3682 114.913 49.4678C114.847 49.5674 114.786 49.667 114.73 49.7666C114.797 49.7555 114.858 49.75 114.913 49.75C114.979 49.75 115.04 49.7445 115.096 49.7334ZM123.662 52.2734C123.54 52.7161 123.43 53.0537 123.33 53.2861C123.242 53.5075 123.103 53.7399 122.915 53.9834C122.771 53.9613 122.672 53.9779 122.616 54.0332C122.561 54.0885 122.5 54.1383 122.434 54.1826C122.334 54.2048 122.262 54.2048 122.218 54.1826C122.173 54.1605 122.135 54.1328 122.102 54.0996C122.068 54.0775 122.024 54.0498 121.969 54.0166C121.924 53.9945 121.853 53.9834 121.753 53.9834C121.731 53.8949 121.703 53.8118 121.67 53.7344C121.648 53.6569 121.576 53.6292 121.454 53.6514C121.476 53.5628 121.482 53.4909 121.471 53.4355C121.46 53.3691 121.443 53.3138 121.421 53.2695C121.41 53.2142 121.399 53.1644 121.388 53.1201C121.377 53.0648 121.382 52.9984 121.404 52.9209C121.349 52.9209 121.305 52.8822 121.271 52.8047C121.238 52.7272 121.2 52.6497 121.155 52.5723C121.188 52.373 121.222 52.1849 121.255 52.0078C121.288 51.8307 121.327 51.6647 121.371 51.5098C121.426 51.3548 121.471 51.1999 121.504 51.0449C121.537 50.89 121.521 50.7295 121.454 50.5635C121.498 50.5967 121.532 50.5911 121.554 50.5469C121.576 50.4915 121.592 50.4251 121.604 50.3477C121.615 50.2591 121.62 50.1761 121.62 50.0986C121.62 50.0101 121.615 49.9382 121.604 49.8828C121.714 49.5951 121.803 49.3018 121.869 49.0029C121.947 48.693 122.013 48.3887 122.068 48.0898C122.135 47.791 122.201 47.4977 122.268 47.21C122.334 46.9222 122.423 46.6566 122.533 46.4131C122.655 46.391 122.788 46.4076 122.932 46.4629C123.087 46.5072 123.181 46.568 123.214 46.6455C123.502 46.4242 123.756 46.1585 123.978 45.8486C124.199 45.5277 124.426 45.2178 124.658 44.9189C124.891 44.6201 125.145 44.3545 125.422 44.1221C125.71 43.8896 126.069 43.7513 126.501 43.707C126.722 43.873 126.966 44.0446 127.231 44.2217C127.508 44.3877 127.735 44.609 127.912 44.8857C128.001 44.93 128.073 44.9798 128.128 45.0352C128.194 45.0794 128.272 45.1292 128.36 45.1846V45.3838C128.493 45.5055 128.598 45.6494 128.676 45.8154C128.764 45.9704 128.842 46.1419 128.908 46.3301C128.975 46.5072 129.041 46.6898 129.107 46.8779C129.174 47.055 129.251 47.2266 129.34 47.3926C129.318 47.4479 129.307 47.4977 129.307 47.542C129.307 47.5752 129.312 47.6139 129.323 47.6582C129.345 47.7025 129.362 47.7467 129.373 47.791C129.384 47.8353 129.384 47.8962 129.373 47.9736C129.34 48.4606 129.179 48.8535 128.892 49.1523C128.615 49.4512 128.277 49.7002 127.879 49.8994C127.48 50.0876 127.054 50.248 126.601 50.3809C126.147 50.5137 125.737 50.6576 125.372 50.8125C125.372 50.8568 125.389 50.8789 125.422 50.8789C125.466 50.8789 125.483 50.9066 125.472 50.9619C125.737 51.1279 125.948 51.2607 126.103 51.3604C126.257 51.46 126.401 51.543 126.534 51.6094C126.678 51.6758 126.827 51.7367 126.982 51.792C127.148 51.8363 127.375 51.8916 127.663 51.958C127.951 52.0244 128.172 52.0798 128.327 52.124C128.493 52.1572 128.643 52.1904 128.775 52.2236C128.908 52.2458 129.041 52.2679 129.174 52.29C129.318 52.3011 129.517 52.3177 129.771 52.3398C129.871 52.4395 129.954 52.5612 130.021 52.7051C130.098 52.8379 130.148 52.9762 130.17 53.1201C130.192 53.2529 130.198 53.3857 130.187 53.5186C130.175 53.6403 130.137 53.7399 130.07 53.8174C130.081 53.8506 130.104 53.8672 130.137 53.8672C130.181 53.8561 130.225 53.8561 130.27 53.8672C130.203 53.9115 130.148 53.9668 130.104 54.0332C130.059 54.0996 130.015 54.166 129.971 54.2324C129.926 54.2988 129.877 54.3542 129.821 54.3984C129.766 54.4538 129.688 54.487 129.589 54.498C129.246 54.6309 128.814 54.6364 128.294 54.5146C127.774 54.404 127.115 54.1937 126.318 53.8838C125.92 53.7288 125.593 53.596 125.339 53.4854C125.095 53.3636 124.88 53.2474 124.691 53.1367C124.514 53.015 124.348 52.8877 124.193 52.7549C124.049 52.6221 123.872 52.4616 123.662 52.2734ZM126.036 46.5791C125.914 46.7562 125.776 46.9167 125.621 47.0605C125.477 47.2044 125.333 47.3538 125.189 47.5088C125.057 47.6527 124.935 47.8187 124.824 48.0068C124.714 48.1839 124.636 48.3942 124.592 48.6377C124.979 48.5934 125.383 48.4883 125.804 48.3223C126.224 48.1452 126.623 47.9792 126.999 47.8242C126.955 47.4811 126.833 47.2044 126.634 46.9941C126.446 46.7839 126.246 46.6455 126.036 46.5791ZM133.706 52.8379C133.761 53.1699 133.739 53.43 133.64 53.6182C133.551 53.8063 133.418 53.9447 133.241 54.0332C133.075 54.1328 132.882 54.1882 132.66 54.1992C132.439 54.2103 132.229 54.1992 132.029 54.166C131.919 54.0111 131.819 53.8174 131.73 53.585C131.642 53.3525 131.559 53.1146 131.481 52.8711C131.404 52.6165 131.332 52.3675 131.266 52.124C131.21 51.8805 131.16 51.6647 131.116 51.4766C131.172 51.3438 131.205 51.1943 131.216 51.0283C131.238 50.8512 131.249 50.6742 131.249 50.4971C131.26 50.32 131.266 50.1429 131.266 49.9658C131.277 49.7777 131.293 49.6006 131.315 49.4346C131.393 48.9697 131.504 48.527 131.647 48.1064C131.802 47.6859 131.924 47.2487 132.013 46.7949C132.035 46.6953 132.024 46.6012 131.979 46.5127C131.946 46.4242 131.941 46.3411 131.963 46.2637C131.974 46.2194 132.007 46.1917 132.062 46.1807C132.118 46.1585 132.151 46.1198 132.162 46.0645C132.195 45.9427 132.201 45.8431 132.179 45.7656C132.168 45.6882 132.19 45.5941 132.245 45.4834C132.3 45.3949 132.367 45.2676 132.444 45.1016C132.533 44.9245 132.566 44.7419 132.544 44.5537C132.644 44.4873 132.738 44.4098 132.826 44.3213C132.915 44.2327 133.003 44.1553 133.092 44.0889C133.191 44.0114 133.297 43.945 133.407 43.8896C133.529 43.8343 133.673 43.8066 133.839 43.8066C133.927 43.9173 133.983 44.0391 134.005 44.1719C134.038 44.3047 134.066 44.4375 134.088 44.5703C134.121 44.7031 134.165 44.8304 134.221 44.9521C134.276 45.0628 134.37 45.1514 134.503 45.2178C134.503 45.3063 134.503 45.417 134.503 45.5498C134.503 45.6826 134.508 45.8154 134.52 45.9482C134.531 46.07 134.553 46.1862 134.586 46.2969C134.63 46.3965 134.697 46.4629 134.785 46.4961C134.586 47.0273 134.398 47.5531 134.221 48.0732C134.055 48.5934 133.916 49.1191 133.806 49.6504C133.695 50.1706 133.623 50.6963 133.59 51.2275C133.568 51.7588 133.606 52.2956 133.706 52.8379ZM135.897 46.5293C135.975 46.2969 136.097 46.0977 136.263 45.9316C136.44 45.7656 136.628 45.6273 136.827 45.5166C137.037 45.3949 137.253 45.2952 137.475 45.2178C137.696 45.1403 137.906 45.0739 138.105 45.0186C138.548 44.8304 139.019 44.6533 139.517 44.4873C140.026 44.3102 140.54 44.1553 141.061 44.0225C141.592 43.8896 142.134 43.8066 142.688 43.7734C143.241 43.7292 143.822 43.7956 144.431 43.9727C144.464 44.0833 144.514 44.1885 144.58 44.2881C144.646 44.3877 144.713 44.4873 144.779 44.5869C144.857 44.6865 144.923 44.7861 144.979 44.8857C145.034 44.9743 145.067 45.0684 145.078 45.168C145.189 45.2676 145.277 45.3783 145.344 45.5C145.41 45.6107 145.421 45.7601 145.377 45.9482C145.266 46.0368 145.156 46.1198 145.045 46.1973C144.945 46.2637 144.835 46.3245 144.713 46.3799C144.303 46.2803 143.888 46.2471 143.468 46.2803C143.047 46.3135 142.671 46.3411 142.339 46.3633C142.239 46.2637 142.118 46.2139 141.974 46.2139C141.841 46.2139 141.697 46.236 141.542 46.2803C141.398 46.3245 141.249 46.3688 141.094 46.4131C140.95 46.4574 140.812 46.4684 140.679 46.4463C140.568 46.5348 140.43 46.5957 140.264 46.6289C140.109 46.651 139.937 46.6732 139.749 46.6953C139.738 46.7507 139.749 46.7894 139.782 46.8115C139.815 46.8226 139.821 46.8558 139.799 46.9111C139.865 46.9886 139.948 47.0439 140.048 47.0771C140.159 47.1104 140.269 47.1436 140.38 47.1768C140.502 47.21 140.607 47.2542 140.695 47.3096C140.784 47.3538 140.845 47.4313 140.878 47.542C141.044 47.542 141.188 47.5807 141.31 47.6582C141.431 47.7357 141.531 47.8298 141.608 47.9404C141.686 48.0511 141.741 48.1729 141.774 48.3057C141.819 48.4274 141.841 48.5381 141.841 48.6377C141.874 48.7262 141.913 48.765 141.957 48.7539C142.001 48.7428 142.051 48.765 142.106 48.8203C142.14 48.9642 142.223 49.1136 142.355 49.2686C142.488 49.4124 142.593 49.5729 142.671 49.75C142.693 50.0267 142.71 50.2757 142.721 50.4971C142.732 50.7074 142.693 50.9232 142.604 51.1445C142.438 51.554 142.206 51.9193 141.907 52.2402C141.619 52.5612 141.287 52.849 140.911 53.1035C140.546 53.347 140.153 53.5573 139.732 53.7344C139.312 53.9115 138.902 54.0609 138.504 54.1826C138.46 54.1715 138.415 54.1715 138.371 54.1826C138.327 54.1937 138.316 54.166 138.338 54.0996C138.249 54.1771 138.15 54.2269 138.039 54.249C137.939 54.2712 137.829 54.2767 137.707 54.2656C137.585 54.2656 137.458 54.2601 137.325 54.249C137.203 54.238 137.087 54.2435 136.977 54.2656C136.899 54.1882 136.827 54.1107 136.761 54.0332C136.705 53.9668 136.661 53.8783 136.628 53.7676C136.573 53.7676 136.545 53.7399 136.545 53.6846C136.556 53.6292 136.539 53.6016 136.495 53.6016C136.562 53.4909 136.589 53.43 136.578 53.4189C136.578 53.3968 136.562 53.3802 136.528 53.3691C136.506 53.3581 136.484 53.347 136.462 53.3359C136.44 53.3138 136.434 53.2861 136.445 53.2529C136.49 53.1644 136.506 53.0648 136.495 52.9541C136.484 52.8324 136.473 52.7106 136.462 52.5889C136.451 52.4671 136.456 52.3509 136.479 52.2402C136.512 52.1296 136.595 52.041 136.728 51.9746C137.104 52.0189 137.458 52.0078 137.79 51.9414C138.133 51.8639 138.454 51.7588 138.753 51.626C139.052 51.4932 139.334 51.3493 139.6 51.1943C139.876 51.0394 140.147 50.901 140.413 50.7793C140.446 50.6797 140.491 50.5967 140.546 50.5303C140.612 50.4639 140.679 50.403 140.745 50.3477C140.812 50.2923 140.872 50.2314 140.928 50.165C140.983 50.0986 141.022 50.0156 141.044 49.916C141.055 49.8385 141.033 49.7943 140.978 49.7832C140.933 49.7611 140.911 49.7168 140.911 49.6504L140.729 49.6006C140.518 49.4788 140.28 49.3792 140.015 49.3018C139.749 49.2132 139.522 49.1191 139.334 49.0195C139.212 49.0859 139.096 49.1025 138.985 49.0693C138.886 49.0361 138.753 49.0029 138.587 48.9697C138.211 48.9476 137.845 48.9089 137.491 48.8535C137.148 48.7982 136.816 48.6986 136.495 48.5547C136.473 48.4993 136.445 48.4495 136.412 48.4053C136.379 48.361 136.318 48.3499 136.229 48.3721C136.163 48.2835 136.097 48.2005 136.03 48.123C135.964 48.0345 135.903 47.9404 135.848 47.8408C135.87 47.708 135.886 47.5973 135.897 47.5088C135.909 47.4092 135.875 47.3151 135.798 47.2266C135.842 47.0827 135.875 46.9665 135.897 46.8779C135.92 46.7894 135.92 46.6732 135.897 46.5293ZM152.864 49.0195C152.853 49.1523 152.864 49.2796 152.897 49.4014C152.931 49.5231 152.969 49.6449 153.014 49.7666C153.069 49.8773 153.119 49.9935 153.163 50.1152C153.207 50.237 153.241 50.3587 153.263 50.4805C153.285 50.6354 153.285 50.807 153.263 50.9951C153.241 51.1722 153.202 51.3493 153.146 51.5264C153.091 51.6924 153.019 51.8473 152.931 51.9912C152.842 52.124 152.737 52.2236 152.615 52.29C152.46 52.4893 152.272 52.6442 152.051 52.7549C151.829 52.8656 151.625 52.9984 151.437 53.1533C151.315 53.2308 151.176 53.2861 151.021 53.3193C150.878 53.3525 150.728 53.3857 150.573 53.4189C150.451 53.4854 150.308 53.5573 150.142 53.6348C149.976 53.7012 149.804 53.7676 149.627 53.834C149.45 53.8893 149.273 53.9336 149.096 53.9668C148.919 53.9889 148.764 53.9945 148.631 53.9834C148.299 54.1051 147.972 54.1826 147.651 54.2158C147.341 54.2601 146.976 54.238 146.556 54.1494C146.157 54.2048 145.786 54.1882 145.443 54.0996C145.111 54.0111 144.812 53.8727 144.547 53.6846C144.292 53.4854 144.065 53.2529 143.866 52.9873C143.678 52.7106 143.523 52.4229 143.401 52.124C143.313 51.4932 143.335 50.9232 143.468 50.4141C143.601 49.8939 143.789 49.418 144.032 48.9863C144.287 48.5436 144.575 48.1396 144.896 47.7744C145.216 47.3981 145.526 47.0329 145.825 46.6787C145.892 46.7008 145.941 46.7008 145.975 46.6787C146.019 46.6455 146.058 46.6068 146.091 46.5625C146.124 46.5072 146.157 46.4574 146.19 46.4131C146.235 46.3688 146.285 46.3411 146.34 46.3301C146.417 46.1641 146.528 46.0423 146.672 45.9648C146.827 45.8763 146.949 45.7546 147.037 45.5996C147.137 45.5775 147.22 45.5443 147.286 45.5C147.353 45.4557 147.413 45.4059 147.469 45.3506C147.535 45.2952 147.602 45.2454 147.668 45.2012C147.734 45.1458 147.812 45.1071 147.9 45.085V44.9023C148.1 44.8138 148.243 44.7142 148.332 44.6035C148.432 44.4818 148.548 44.3379 148.681 44.1719C148.78 44.1608 148.858 44.1553 148.913 44.1553C148.979 44.1553 149.074 44.1442 149.195 44.1221C149.284 43.9671 149.361 43.8509 149.428 43.7734C149.505 43.696 149.616 43.613 149.76 43.5244C149.893 43.5908 150.036 43.6351 150.191 43.6572C150.357 43.6794 150.501 43.7513 150.623 43.873C150.634 43.9837 150.667 44.0723 150.723 44.1387C150.778 44.194 150.839 44.2493 150.905 44.3047C150.972 44.349 151.033 44.3988 151.088 44.4541C151.154 44.5094 151.199 44.5869 151.221 44.6865C151.265 44.6976 151.293 44.6921 151.304 44.6699C151.326 44.6478 151.359 44.6423 151.403 44.6533C151.437 44.8083 151.475 44.9134 151.52 44.9688C151.564 45.013 151.608 45.1071 151.652 45.251C151.597 45.3617 151.553 45.4779 151.52 45.5996C151.497 45.7103 151.431 45.7933 151.32 45.8486C151.309 45.9261 151.331 45.9704 151.387 45.9814C151.442 45.9814 151.475 46.0091 151.486 46.0645C151.497 46.1641 151.481 46.236 151.437 46.2803C151.702 46.7119 151.94 47.1712 152.15 47.6582C152.361 48.1341 152.599 48.5879 152.864 49.0195ZM150.789 50.5967C150.833 50.4749 150.889 50.3753 150.955 50.2979C151.033 50.2204 151.077 50.1042 151.088 49.9492C151.033 49.8607 150.999 49.7943 150.988 49.75C150.977 49.6947 150.972 49.6117 150.972 49.501C150.728 49.1579 150.518 48.7926 150.341 48.4053C150.164 48.0068 149.965 47.6361 149.743 47.293C149.721 47.3372 149.682 47.3815 149.627 47.4258C149.572 47.4701 149.511 47.459 149.444 47.3926C149.422 47.4811 149.383 47.5475 149.328 47.5918C149.273 47.625 149.212 47.6416 149.146 47.6416C149.079 47.6305 149.007 47.6139 148.93 47.5918C148.863 47.5586 148.802 47.5199 148.747 47.4756C148.426 47.7301 148.105 47.9792 147.784 48.2227C147.463 48.4661 147.175 48.7484 146.921 49.0693C146.877 49.0915 146.849 49.1025 146.838 49.1025C146.827 49.0915 146.794 49.097 146.738 49.1191C146.65 49.3294 146.539 49.5231 146.406 49.7002C146.285 49.8662 146.163 50.0378 146.041 50.2148C145.919 50.3919 145.814 50.5801 145.726 50.7793C145.637 50.9785 145.587 51.2109 145.576 51.4766C145.764 51.6315 145.986 51.7256 146.24 51.7588C146.495 51.792 146.755 51.7975 147.021 51.7754C147.297 51.7533 147.563 51.7201 147.817 51.6758C148.083 51.6204 148.326 51.5928 148.548 51.5928C149.013 51.4821 149.411 51.3382 149.743 51.1611C150.075 50.973 150.424 50.7848 150.789 50.5967ZM157.28 50.9785C157.181 51.0007 157.109 51.0615 157.064 51.1611C157.02 51.2497 156.976 51.3438 156.932 51.4434C156.898 51.543 156.86 51.637 156.815 51.7256C156.782 51.8031 156.727 51.8418 156.649 51.8418C156.638 51.9303 156.605 52.0078 156.55 52.0742C156.506 52.1406 156.461 52.2126 156.417 52.29C156.373 52.3564 156.34 52.4339 156.317 52.5225C156.295 52.5999 156.306 52.694 156.351 52.8047C156.262 52.8711 156.207 52.9652 156.185 53.0869C156.162 53.2087 156.135 53.3249 156.102 53.4355C156.079 53.5462 156.035 53.6403 155.969 53.7178C155.902 53.7952 155.781 53.8285 155.604 53.8174C155.57 53.8617 155.565 53.8893 155.587 53.9004C155.609 53.9115 155.626 53.9502 155.637 54.0166C155.515 53.9945 155.421 54 155.354 54.0332C155.299 54.0775 155.227 54.1051 155.139 54.1162C154.928 54.0498 154.751 53.9336 154.607 53.7676C154.475 53.6016 154.353 53.4189 154.242 53.2197C154.143 53.0094 154.049 52.7992 153.96 52.5889C153.882 52.3786 153.805 52.196 153.728 52.041C153.761 51.9193 153.766 51.8031 153.744 51.6924C153.722 51.5706 153.683 51.471 153.628 51.3936C154.17 50.2425 154.762 49.014 155.404 47.708C156.046 46.402 156.655 45.1126 157.23 43.8398C157.485 43.9395 157.734 44.0557 157.978 44.1885C158.232 44.3102 158.459 44.4541 158.658 44.6201C158.868 44.7861 159.046 44.9798 159.189 45.2012C159.333 45.4115 159.427 45.6494 159.472 45.915C159.45 45.9814 159.422 46.0091 159.389 45.998C159.367 45.9759 159.344 45.9814 159.322 46.0146C159.367 46.07 159.389 46.1087 159.389 46.1309C159.4 46.153 159.4 46.1751 159.389 46.1973C159.389 46.2194 159.389 46.2526 159.389 46.2969C159.389 46.3301 159.405 46.3799 159.438 46.4463C159.394 46.4352 159.361 46.4408 159.339 46.4629C159.328 46.485 159.295 46.485 159.239 46.4629C159.284 46.5846 159.295 46.6842 159.272 46.7617C159.261 46.8392 159.239 46.9111 159.206 46.9775C159.173 47.0329 159.145 47.0993 159.123 47.1768C159.101 47.2432 159.106 47.3317 159.14 47.4424C159.106 47.4424 159.079 47.4535 159.057 47.4756C159.046 47.4867 159.035 47.5033 159.023 47.5254C159.012 47.5365 158.996 47.5531 158.974 47.5752C158.963 47.5863 158.94 47.5863 158.907 47.5752C158.94 47.8187 158.951 48.0622 158.94 48.3057C158.929 48.5492 158.918 48.7982 158.907 49.0527C158.907 49.2962 158.913 49.5563 158.924 49.833C158.935 50.0986 158.974 50.3753 159.04 50.6631C159.438 50.4307 159.754 50.1318 159.986 49.7666C160.23 49.4014 160.424 48.9919 160.567 48.5381C160.722 48.0843 160.839 47.5973 160.916 47.0771C160.993 46.557 161.076 46.0257 161.165 45.4834C161.265 45.3838 161.342 45.262 161.397 45.1182C161.453 44.9743 161.503 44.8249 161.547 44.6699C161.591 44.5039 161.635 44.3434 161.68 44.1885C161.724 44.0225 161.779 43.873 161.846 43.7402C162.012 43.7624 162.15 43.8177 162.261 43.9062C162.382 43.9837 162.493 44.0723 162.593 44.1719C162.692 44.2604 162.798 44.349 162.908 44.4375C163.019 44.515 163.157 44.5648 163.323 44.5869C163.456 44.7751 163.578 44.9577 163.688 45.1348C163.799 45.3118 163.871 45.5 163.904 45.6992C163.849 45.7878 163.805 45.8874 163.771 45.998C163.749 46.1087 163.722 46.2194 163.688 46.3301C163.655 46.4408 163.611 46.5459 163.556 46.6455C163.5 46.734 163.423 46.8115 163.323 46.8779C163.29 47.1657 163.246 47.4313 163.19 47.6748C163.146 47.9072 163.096 48.1396 163.041 48.3721C162.997 48.6045 162.958 48.848 162.925 49.1025C162.892 49.346 162.881 49.6172 162.892 49.916C162.803 50.1706 162.709 50.4417 162.609 50.7295C162.51 51.0173 162.432 51.2773 162.377 51.5098C162.2 51.6536 162.062 51.8252 161.962 52.0244C161.862 52.2236 161.757 52.4229 161.646 52.6221C161.602 52.6663 161.575 52.6774 161.563 52.6553C161.552 52.6331 161.514 52.6165 161.447 52.6055C161.458 52.6497 161.458 52.6829 161.447 52.7051C161.436 52.7272 161.42 52.7493 161.397 52.7715C161.386 52.7826 161.375 52.8047 161.364 52.8379C161.364 52.8711 161.375 52.9154 161.397 52.9707C161.243 53.0371 161.104 53.1312 160.982 53.2529C160.861 53.3747 160.728 53.4854 160.584 53.585C160.451 53.6846 160.285 53.751 160.086 53.7842C159.898 53.8174 159.649 53.7786 159.339 53.668C158.885 53.3359 158.481 52.9541 158.127 52.5225C157.784 52.0908 157.502 51.5762 157.28 50.9785ZM179.211 46.0146C178.934 46.0146 178.635 46.0368 178.314 46.0811C177.993 46.1143 177.678 46.153 177.368 46.1973C177.147 46.2305 176.931 46.2581 176.721 46.2803C176.521 46.3024 176.339 46.319 176.173 46.3301C176.095 46.5736 176.018 46.7894 175.94 46.9775C175.863 47.1657 175.78 47.3483 175.691 47.5254C175.603 47.7135 175.52 47.9072 175.442 48.1064C175.376 48.2946 175.31 48.4993 175.243 48.7207C175.132 48.8978 175.038 49.0638 174.961 49.2188C174.895 49.3626 174.839 49.5286 174.795 49.7168C174.662 49.8828 174.562 50.0599 174.496 50.248C174.43 50.4251 174.38 50.5801 174.347 50.7129L174.28 50.9121C174.214 50.9785 174.175 51.0339 174.164 51.0781C174.153 51.1113 174.125 51.1445 174.081 51.1777C174.07 51.2995 174.031 51.4212 173.965 51.543C173.943 51.5983 173.926 51.6536 173.915 51.709C173.904 51.7533 173.898 51.7865 173.898 51.8086C173.898 51.9193 173.871 51.9912 173.815 52.0244C173.826 52.0798 173.826 52.1406 173.815 52.207C173.804 52.2624 173.793 52.3177 173.782 52.373C173.749 52.5059 173.738 52.611 173.749 52.6885C173.782 52.7327 173.81 52.7715 173.832 52.8047C173.865 52.8379 173.887 52.8822 173.898 52.9375C173.965 52.9818 174.015 53.0094 174.048 53.0205C174.092 53.0537 174.159 53.0924 174.247 53.1367L174.396 53.3027C174.452 53.6237 174.402 53.8783 174.247 54.0664C174.081 54.2767 173.799 54.3818 173.4 54.3818H173.201C173.146 54.3265 173.113 54.2822 173.102 54.249C173.013 54.2158 172.941 54.1882 172.886 54.166C172.83 54.1439 172.781 54.0996 172.736 54.0332C172.592 53.9668 172.476 53.9115 172.388 53.8672L172.238 53.7842C172.238 53.6624 172.238 53.596 172.238 53.585C172.161 53.4854 172.1 53.3747 172.056 53.2529C172.022 53.1312 171.995 53.0094 171.973 52.8877C171.951 52.7881 171.923 52.694 171.89 52.6055C171.868 52.5169 171.834 52.4395 171.79 52.373C171.768 51.7311 171.829 51.1888 171.973 50.7461C172.117 50.3034 172.266 49.8773 172.421 49.4678C172.509 49.2464 172.598 49.0251 172.687 48.8037C172.775 48.5713 172.853 48.3333 172.919 48.0898L173.068 47.9238C173.146 47.7467 173.207 47.6029 173.251 47.4922C173.306 47.3704 173.362 47.2487 173.417 47.127C173.45 47.0495 173.478 46.9775 173.5 46.9111C173.533 46.8337 173.561 46.7673 173.583 46.7119C173.517 46.7119 173.456 46.7174 173.4 46.7285C173.345 46.7285 173.29 46.734 173.234 46.7451C173.168 46.7562 173.107 46.7673 173.052 46.7783C172.996 46.7783 172.941 46.7783 172.886 46.7783C172.808 46.7783 172.753 46.7728 172.72 46.7617C172.598 46.8171 172.465 46.8447 172.321 46.8447H172.155C172.122 46.8447 172.089 46.8447 172.056 46.8447C172.034 46.8337 172.011 46.8281 171.989 46.8281C171.879 46.8281 171.79 46.8447 171.724 46.8779C171.591 46.8779 171.464 46.8779 171.342 46.8779H171.176C171.154 46.8779 171.126 46.8835 171.093 46.8945C171.06 46.8945 171.032 46.8945 171.01 46.8945C170.932 46.8945 170.849 46.889 170.761 46.8779C170.672 46.8558 170.578 46.8171 170.479 46.7617C170.346 46.5846 170.257 46.4906 170.213 46.4795L170.063 46.2803C170.052 46.2139 170.036 46.153 170.014 46.0977C169.992 46.0312 169.969 45.9593 169.947 45.8818C169.903 45.7712 169.859 45.6549 169.814 45.5332C169.781 45.4004 169.765 45.2454 169.765 45.0684C169.776 44.9798 169.798 44.9134 169.831 44.8691C169.864 44.8249 169.892 44.7861 169.914 44.7529L169.964 44.5039L170.18 44.5205H170.645C170.999 44.5205 171.358 44.5094 171.724 44.4873C172.089 44.4541 172.465 44.4209 172.853 44.3877C173.074 44.3656 173.295 44.3434 173.517 44.3213C173.749 44.2992 173.987 44.277 174.23 44.2549C174.275 44.1553 174.319 44.0612 174.363 43.9727L174.529 43.8896C174.729 43.8786 174.867 43.9062 174.944 43.9727C175.033 44.028 175.105 44.0833 175.16 44.1387C175.404 44.1165 175.647 44.0944 175.891 44.0723C176.145 44.0391 176.4 44.0003 176.654 43.9561C177.031 43.9007 177.407 43.8509 177.783 43.8066C178.171 43.7624 178.541 43.7402 178.896 43.7402C179.05 43.7402 179.2 43.7458 179.344 43.7568C179.488 43.7679 179.62 43.7845 179.742 43.8066L179.908 43.9229C179.941 43.9893 179.986 44.0501 180.041 44.1055C180.107 44.1608 180.174 44.2161 180.24 44.2715C180.373 44.3932 180.506 44.5371 180.639 44.7031C180.771 44.8691 180.821 45.1126 180.788 45.4336C180.7 45.5664 180.633 45.6439 180.589 45.666L180.439 45.8652L180.273 45.8486C180.207 45.8486 180.146 45.8597 180.091 45.8818C180.035 45.8929 179.98 45.9095 179.925 45.9316C179.881 45.9538 179.836 45.9759 179.792 45.998C179.748 46.0091 179.698 46.0202 179.643 46.0312C179.543 46.0312 179.46 46.0312 179.394 46.0312C179.338 46.0202 179.277 46.0146 179.211 46.0146ZM185.852 52.6055C185.785 52.7936 185.686 52.9873 185.553 53.1865C185.431 53.3747 185.282 53.5462 185.104 53.7012C184.938 53.8451 184.75 53.9668 184.54 54.0664C184.33 54.166 184.108 54.2214 183.876 54.2324C183.732 54.1992 183.632 54.1605 183.577 54.1162C183.533 54.083 183.483 54.0498 183.428 54.0166C183.395 53.9945 183.361 53.9779 183.328 53.9668C183.306 53.9447 183.284 53.9281 183.262 53.917L183.062 53.834L183.129 53.6182C183.151 53.5296 183.146 53.4632 183.112 53.4189C183.079 53.3636 183.013 53.2917 182.913 53.2031C182.88 53.1699 182.847 53.1367 182.813 53.1035C182.78 53.0703 182.753 53.0371 182.73 53.0039L182.448 52.6885L182.896 52.5723C183.173 52.4948 183.356 52.3952 183.444 52.2734C183.544 52.1517 183.583 51.9469 183.561 51.6592C183.339 51.6149 183.151 51.6094 182.996 51.6426C182.852 51.6758 182.703 51.7145 182.548 51.7588C182.349 51.8141 182.144 51.8639 181.934 51.9082C181.734 51.9414 181.513 51.958 181.27 51.958C181.181 51.958 181.098 51.958 181.021 51.958C180.943 51.9469 180.86 51.9359 180.771 51.9248L180.605 51.8916C180.583 51.7699 180.561 51.7035 180.539 51.6924C180.517 51.6702 180.495 51.6481 180.473 51.626C180.417 51.5706 180.356 51.4987 180.29 51.4102C180.235 51.3105 180.224 51.1888 180.257 51.0449C180.201 50.9453 180.168 50.8457 180.157 50.7461C180.091 50.8789 180.041 51.0173 180.008 51.1611L179.941 51.3271L179.775 51.3604C179.753 51.3714 179.737 51.3991 179.726 51.4434C179.715 51.4766 179.709 51.5042 179.709 51.5264L179.626 51.8086C179.604 51.8307 179.582 51.8529 179.56 51.875C179.537 51.8861 179.515 51.9027 179.493 51.9248C179.471 52.0244 179.443 52.124 179.41 52.2236C179.377 52.3232 179.344 52.4173 179.311 52.5059C179.255 52.6497 179.205 52.7936 179.161 52.9375C179.128 53.0703 179.117 53.2031 179.128 53.3359L179.062 53.5186C179.006 53.585 178.945 53.6403 178.879 53.6846C178.812 53.7178 178.746 53.751 178.68 53.7842C178.658 53.8063 178.624 53.8285 178.58 53.8506C178.547 53.8617 178.519 53.8727 178.497 53.8838L178.447 54.0664L178.248 54.0996C178.126 54.1217 178.038 54.1383 177.982 54.1494C177.938 54.1605 177.883 54.166 177.816 54.166L177.65 54.1494C177.529 54.0498 177.435 53.9723 177.368 53.917C177.302 53.8506 177.224 53.7897 177.136 53.7344C177.036 53.6016 176.981 53.502 176.97 53.4355C176.959 53.3691 176.948 53.3083 176.937 53.2529C176.914 53.1865 176.903 53.1312 176.903 53.0869C176.892 53.0426 176.876 53.0094 176.854 52.9873L176.638 52.7881L176.82 52.6387L176.837 52.3564C177.058 51.792 177.291 51.2497 177.534 50.7295C177.789 50.2093 178.049 49.6781 178.314 49.1357C178.403 48.9587 178.486 48.7816 178.563 48.6045C178.652 48.4274 178.741 48.2503 178.829 48.0732C178.818 48.04 178.812 48.0013 178.812 47.957C178.812 47.9128 178.824 47.863 178.846 47.8076C178.967 47.6195 179.067 47.4535 179.145 47.3096C179.222 47.1546 179.299 46.9997 179.377 46.8447C179.465 46.6566 179.554 46.474 179.643 46.2969C179.742 46.1198 179.864 45.9372 180.008 45.749L180.273 45.6328C180.307 45.6217 180.345 45.6107 180.39 45.5996C180.434 45.5775 180.484 45.5664 180.539 45.5664L180.788 45.5996C181.098 45.4557 181.369 45.2565 181.602 45.002C181.834 44.7363 182.072 44.4209 182.315 44.0557L182.481 43.8232L182.697 43.9561C182.753 43.9893 182.83 44.0225 182.93 44.0557C183.029 44.0778 183.134 44.1055 183.245 44.1387C183.444 44.1829 183.632 44.2327 183.81 44.2881C183.987 44.3434 184.131 44.4264 184.241 44.5371C184.308 44.7142 184.346 44.847 184.357 44.9355C184.368 45.0241 184.385 45.1126 184.407 45.2012C184.44 45.3893 184.468 45.5775 184.49 45.7656C184.523 45.9538 184.546 46.1641 184.557 46.3965C184.612 46.5846 184.656 46.7728 184.689 46.9609C184.734 47.138 184.772 47.3206 184.806 47.5088C184.861 47.7744 184.916 48.0345 184.972 48.2891C185.027 48.5326 185.099 48.765 185.188 48.9863C185.276 48.9863 185.331 48.9919 185.354 49.0029C185.409 48.9808 185.464 48.9642 185.52 48.9531C185.586 48.9421 185.658 48.931 185.735 48.9199L185.918 48.9033L185.984 49.0693C185.995 49.1247 186.051 49.18 186.15 49.2354C186.294 49.2464 186.399 49.2796 186.466 49.335C186.532 49.3792 186.593 49.429 186.648 49.4844C186.693 49.5286 186.737 49.5618 186.781 49.584L187.03 49.6836L186.897 49.9326C186.787 50.1318 186.626 50.3255 186.416 50.5137C186.217 50.6908 185.99 50.8402 185.735 50.9619C185.746 51.0283 185.752 51.0947 185.752 51.1611C185.763 51.2165 185.78 51.2773 185.802 51.3438C185.835 51.5319 185.863 51.7256 185.885 51.9248C185.907 52.124 185.907 52.3288 185.885 52.5391L185.852 52.6055ZM181.054 49.7334C181.386 49.7113 181.685 49.6891 181.95 49.667C182.227 49.6338 182.531 49.584 182.863 49.5176C182.786 49.1855 182.703 48.8424 182.614 48.4883C182.526 48.123 182.432 47.7633 182.332 47.4092L182.232 47.5752C182.011 47.8076 181.795 48.0677 181.585 48.3555C181.386 48.6432 181.214 48.9144 181.07 49.1689C181.004 49.2686 180.938 49.3682 180.871 49.4678C180.805 49.5674 180.744 49.667 180.688 49.7666C180.755 49.7555 180.816 49.75 180.871 49.75C180.938 49.75 180.998 49.7445 181.054 49.7334ZM195.729 51.2939C195.796 51.3271 195.835 51.3825 195.846 51.46C195.857 51.5374 195.857 51.5983 195.846 51.6426C195.646 51.8971 195.508 52.0742 195.431 52.1738C195.353 52.2734 195.298 52.3509 195.265 52.4062C195.231 52.4505 195.193 52.4893 195.148 52.5225C195.115 52.5557 195.032 52.6276 194.899 52.7383C194.401 53.0371 193.887 53.3027 193.355 53.5352C192.835 53.7676 192.287 53.9281 191.712 54.0166C191.623 54.1383 191.452 54.2214 191.197 54.2656C190.954 54.321 190.727 54.3708 190.517 54.415C190.472 54.3929 190.445 54.3597 190.434 54.3154C190.434 54.2822 190.411 54.2546 190.367 54.2324C190.356 54.3431 190.306 54.3984 190.218 54.3984C190.129 54.4095 190.019 54.3874 189.886 54.332C189.764 54.2878 189.631 54.2214 189.487 54.1328C189.354 54.0553 189.238 53.9834 189.139 53.917C189.083 54.0055 189.022 54.0941 188.956 54.1826C188.901 54.2712 188.829 54.332 188.74 54.3652C188.618 54.3431 188.524 54.3265 188.458 54.3154C188.403 54.3044 188.347 54.3265 188.292 54.3818C188.226 54.3486 188.17 54.3099 188.126 54.2656C188.093 54.2214 188.054 54.1771 188.01 54.1328C187.977 54.0996 187.932 54.0664 187.877 54.0332C187.833 54 187.766 53.9723 187.678 53.9502C187.7 53.9059 187.689 53.8395 187.645 53.751C187.6 53.6514 187.534 53.5905 187.445 53.5684C187.49 53.4909 187.467 53.3968 187.379 53.2861C187.301 53.1644 187.241 53.0316 187.196 52.8877C187.218 52.766 187.235 52.6331 187.246 52.4893C187.257 52.3454 187.324 52.2624 187.445 52.2402C187.434 52.1628 187.418 52.0964 187.396 52.041C187.373 51.9857 187.351 51.9303 187.329 51.875C187.407 51.8086 187.462 51.7311 187.495 51.6426C187.528 51.543 187.556 51.4434 187.578 51.3438C187.6 51.2441 187.628 51.1445 187.661 51.0449C187.694 50.9453 187.755 50.8623 187.844 50.7959C187.943 50.4639 188.021 50.2204 188.076 50.0654C188.132 49.8994 188.17 49.7389 188.192 49.584C188.226 49.429 188.259 49.263 188.292 49.0859C188.336 48.9089 188.408 48.6875 188.508 48.4219C188.497 48.2559 188.513 48.112 188.558 47.9902C188.602 47.8574 188.646 47.7301 188.69 47.6084C188.746 47.4756 188.79 47.3428 188.823 47.21C188.856 47.0661 188.851 46.9001 188.807 46.7119C188.652 46.723 188.541 46.7783 188.475 46.8779C188.408 46.9665 188.364 47.0882 188.342 47.2432C188.253 47.3317 188.143 47.376 188.01 47.376C187.888 47.3649 187.777 47.376 187.678 47.4092C187.29 47.2542 186.969 47.0329 186.715 46.7451C186.46 46.4574 186.256 46.1198 186.101 45.7324C186.2 45.4779 186.35 45.2676 186.549 45.1016C186.748 44.9245 186.975 44.7806 187.229 44.6699C187.484 44.5482 187.755 44.4541 188.043 44.3877C188.331 44.3102 188.607 44.2383 188.873 44.1719C189.305 44.0944 189.736 44.0059 190.168 43.9062C190.6 43.8066 191.064 43.7734 191.562 43.8066C191.629 43.7734 191.706 43.7568 191.795 43.7568C191.895 43.7458 191.994 43.7402 192.094 43.7402C192.193 43.7402 192.287 43.7402 192.376 43.7402C192.476 43.7292 192.559 43.707 192.625 43.6738C192.68 43.7402 192.758 43.7845 192.857 43.8066C192.968 43.8177 193.084 43.8675 193.206 43.9561C193.339 43.8564 193.45 43.8343 193.538 43.8896C193.638 43.945 193.726 44.0059 193.804 44.0723C193.881 44.1387 193.953 44.1995 194.02 44.2549C194.097 44.3102 194.174 44.3379 194.252 44.3379C194.329 44.4375 194.424 44.5316 194.534 44.6201C194.656 44.7087 194.767 44.8027 194.866 44.9023C194.977 44.9909 195.065 45.0905 195.132 45.2012C195.209 45.3118 195.248 45.4391 195.248 45.583C195.237 45.6383 195.254 45.6715 195.298 45.6826C195.342 45.6937 195.375 45.7158 195.397 45.749C195.409 46.0921 195.353 46.391 195.231 46.6455C195.121 46.889 194.977 47.1159 194.8 47.3262C194.634 47.5365 194.446 47.7357 194.235 47.9238C194.036 48.112 193.854 48.3112 193.688 48.5215C193.798 48.6654 193.925 48.7926 194.069 48.9033C194.213 49.014 194.357 49.1247 194.501 49.2354C194.656 49.346 194.8 49.4622 194.933 49.584C195.065 49.7057 195.176 49.8496 195.265 50.0156C195.287 50.0378 195.314 50.0599 195.348 50.082C195.381 50.0931 195.414 50.1097 195.447 50.1318C195.48 50.2425 195.525 50.3587 195.58 50.4805C195.635 50.5911 195.68 50.7018 195.713 50.8125C195.757 50.9121 195.785 51.0062 195.796 51.0947C195.807 51.1722 195.785 51.2386 195.729 51.2939ZM192.808 45.749C192.243 45.7269 191.679 45.7767 191.114 45.8984C190.561 46.0202 190.096 46.1917 189.72 46.4131C189.908 46.568 190.096 46.7064 190.284 46.8281C190.483 46.9499 190.638 47.1159 190.749 47.3262C191.181 47.1491 191.562 46.9277 191.895 46.6621C192.227 46.3854 192.531 46.0811 192.808 45.749ZM193.023 51.0449C193.057 50.9342 193.118 50.8457 193.206 50.7793C193.295 50.7129 193.383 50.652 193.472 50.5967C193.56 50.5303 193.638 50.4639 193.704 50.3975C193.771 50.32 193.798 50.2148 193.787 50.082C193.433 49.8939 193.106 49.7832 192.808 49.75C192.52 49.7057 192.243 49.7057 191.978 49.75C191.723 49.7832 191.474 49.8385 191.23 49.916C190.998 49.9935 190.76 50.0488 190.517 50.082C190.395 50.403 190.268 50.7516 190.135 51.1279C190.002 51.5042 189.875 51.8695 189.753 52.2236C190.085 52.1794 190.389 52.113 190.666 52.0244C190.943 51.9248 191.208 51.8197 191.463 51.709C191.729 51.5983 191.983 51.4876 192.227 51.377C192.481 51.2552 192.747 51.1445 193.023 51.0449ZM200.743 53.8174C200.433 53.917 200.096 54.0166 199.73 54.1162C199.365 54.2158 199 54.2656 198.635 54.2656C198.081 54.2656 197.644 54.1273 197.323 53.8506C197.268 53.7288 197.218 53.6458 197.174 53.6016C197.141 53.5573 197.107 53.513 197.074 53.4688C197.052 53.4134 197.035 53.3415 197.024 53.2529C196.892 53.098 196.786 52.9209 196.709 52.7217C196.632 52.5114 196.576 52.3011 196.543 52.0908C196.521 51.8695 196.515 51.6481 196.526 51.4268C196.549 51.2054 196.587 50.9951 196.643 50.7959C196.665 50.7516 196.676 50.7074 196.676 50.6631C196.687 50.6188 196.698 50.569 196.709 50.5137C196.753 50.3366 196.798 50.165 196.842 49.999C196.897 49.833 196.969 49.6891 197.058 49.5674C197.013 49.4678 197.013 49.3571 197.058 49.2354C197.102 49.1136 197.152 49.0029 197.207 48.9033C197.362 48.4827 197.489 48.1286 197.589 47.8408C197.7 47.542 197.81 47.2487 197.921 46.9609C198.109 46.4629 198.286 45.9704 198.452 45.4834C198.618 44.9964 198.768 44.4707 198.9 43.9062C198.989 43.8509 199.055 43.8122 199.1 43.79C199.166 43.7679 199.221 43.7513 199.266 43.7402C199.465 43.8398 199.697 43.9395 199.963 44.0391C200.229 44.1276 200.45 44.1719 200.627 44.1719C200.715 44.2272 200.771 44.2715 200.793 44.3047C200.815 44.3268 200.837 44.349 200.859 44.3711C200.981 44.515 201.086 44.6644 201.175 44.8193C201.263 44.9632 201.291 45.1569 201.258 45.4004C201.191 45.5 201.142 45.5498 201.108 45.5498C201.053 45.7712 200.992 45.9593 200.926 46.1143C200.87 46.2692 200.81 46.4242 200.743 46.5791C200.666 46.7451 200.594 46.9111 200.527 47.0771C200.461 47.2432 200.406 47.4479 200.361 47.6914C200.317 47.7467 200.284 47.7965 200.262 47.8408C200.251 47.8851 200.234 47.9349 200.212 47.9902C200.19 48.0456 200.162 48.1064 200.129 48.1729C200.107 48.2282 200.068 48.278 200.013 48.3223C199.979 48.61 199.924 48.8424 199.847 49.0195C199.78 49.1966 199.708 49.3737 199.631 49.5508C199.498 49.8717 199.376 50.1927 199.266 50.5137C199.166 50.8346 199.105 51.1999 199.083 51.6094C199.138 51.5872 199.188 51.5762 199.232 51.5762C199.288 51.5762 199.338 51.5762 199.382 51.5762C199.481 51.5762 199.598 51.5928 199.73 51.626C200.062 51.4489 200.422 51.3438 200.81 51.3105C201.208 51.2773 201.601 51.2552 201.988 51.2441C202.143 51.2441 202.298 51.2441 202.453 51.2441C202.608 51.2441 202.752 51.2331 202.885 51.2109C202.984 51.2663 203.045 51.2995 203.067 51.3105C203.101 51.3105 203.145 51.3105 203.2 51.3105C203.278 51.3105 203.344 51.3161 203.399 51.3271C203.532 51.4489 203.66 51.5374 203.781 51.5928C203.903 51.6481 204.03 51.6979 204.163 51.7422C204.285 51.7865 204.401 51.8363 204.512 51.8916C204.633 51.9359 204.75 52.0023 204.86 52.0908L204.977 52.8047C205.054 52.9043 205.087 52.9707 205.076 53.0039C205.076 53.0924 205.054 53.1589 205.01 53.2031L205.043 53.3857C204.877 53.4189 204.761 53.4577 204.694 53.502C204.639 53.5462 204.584 53.596 204.528 53.6514C204.44 53.6624 204.373 53.668 204.329 53.668C204.296 53.668 204.263 53.668 204.229 53.668C204.075 53.668 203.886 53.6956 203.665 53.751C203.366 53.6514 203.056 53.6016 202.735 53.6016C202.614 53.6016 202.486 53.6071 202.354 53.6182C202.221 53.6292 202.088 53.6403 201.955 53.6514C201.822 53.6735 201.684 53.6901 201.54 53.7012C201.407 53.7122 201.269 53.7178 201.125 53.7178L200.743 53.8174ZM214.688 44.6533C214.7 44.7308 214.7 44.7917 214.688 44.8359C214.688 44.8691 214.683 44.9023 214.672 44.9355C214.672 44.9688 214.672 45.0075 214.672 45.0518C214.672 45.085 214.683 45.1403 214.705 45.2178C214.473 45.5941 214.201 45.8542 213.892 45.998C213.593 46.1309 213.266 46.2305 212.912 46.2969C212.558 46.3522 212.193 46.4131 211.816 46.4795C211.451 46.5459 211.086 46.6898 210.721 46.9111C210.577 46.8558 210.444 46.8558 210.322 46.9111C210.212 46.9665 210.046 46.9831 209.824 46.9609C209.758 47.0273 209.675 47.0771 209.575 47.1104C209.476 47.1325 209.376 47.1602 209.276 47.1934C209.321 47.293 209.337 47.3981 209.326 47.5088C209.326 47.6084 209.343 47.6914 209.376 47.7578C209.763 47.791 210.189 47.7855 210.654 47.7412C211.13 47.6969 211.595 47.6693 212.049 47.6582C212.06 47.7135 212.054 47.7523 212.032 47.7744C212.01 47.7855 212.005 47.8132 212.016 47.8574C212.093 47.9128 212.171 47.9847 212.248 48.0732C212.326 48.1507 212.403 48.2282 212.48 48.3057C212.558 48.3831 212.635 48.4495 212.713 48.5049C212.801 48.5492 212.901 48.5658 213.012 48.5547C213.056 48.6432 213.084 48.7428 213.095 48.8535C213.117 48.9531 213.106 49.0583 213.062 49.1689C212.884 49.2907 212.707 49.418 212.53 49.5508C212.353 49.6725 212.165 49.7832 211.966 49.8828C211.778 49.9824 211.573 50.0654 211.352 50.1318C211.141 50.1872 210.903 50.2093 210.638 50.1982C210.582 50.1982 210.538 50.1982 210.505 50.1982C210.483 50.1982 210.45 50.1816 210.405 50.1484C210.317 50.2038 210.189 50.2204 210.023 50.1982C209.868 50.1761 209.747 50.1927 209.658 50.248C209.536 50.1927 209.387 50.1706 209.21 50.1816C209.044 50.1816 208.895 50.1595 208.762 50.1152C208.585 50.3477 208.424 50.5967 208.28 50.8623C208.136 51.1279 208.009 51.4102 207.898 51.709C208.275 51.7643 208.585 51.7865 208.828 51.7754C209.083 51.7643 209.321 51.7477 209.542 51.7256C209.763 51.6924 209.99 51.6647 210.223 51.6426C210.455 51.6094 210.748 51.5983 211.103 51.6094C211.324 51.4876 211.584 51.4102 211.883 51.377C212.193 51.3327 212.475 51.2663 212.729 51.1777C212.818 51.2109 212.896 51.2718 212.962 51.3604C213.028 51.4378 213.089 51.5153 213.145 51.5928C213.211 51.6592 213.277 51.7201 213.344 51.7754C213.41 51.8307 213.493 51.8529 213.593 51.8418C213.637 51.8861 213.665 51.9414 213.676 52.0078C213.698 52.0632 213.715 52.1185 213.726 52.1738C213.737 52.2292 213.753 52.279 213.775 52.3232C213.809 52.3564 213.858 52.3675 213.925 52.3564C213.759 52.7217 213.565 53.0039 213.344 53.2031C213.133 53.3913 212.89 53.5352 212.613 53.6348C212.337 53.7344 212.027 53.8118 211.684 53.8672C211.352 53.9225 210.981 53.9889 210.571 54.0664C210.472 54.0885 210.389 54.083 210.322 54.0498C210.256 54.0277 210.178 54.0166 210.09 54.0166C209.835 54.0719 209.531 54.1217 209.177 54.166C208.823 54.2103 208.463 54.2269 208.098 54.2158C207.732 54.2048 207.384 54.1549 207.052 54.0664C206.72 53.9889 206.449 53.8451 206.238 53.6348C206.15 53.5573 206.089 53.4688 206.056 53.3691C206.034 53.2585 205.962 53.1755 205.84 53.1201C205.829 52.9762 205.807 52.8158 205.773 52.6387C205.74 52.4616 205.707 52.279 205.674 52.0908C205.641 51.8916 205.613 51.6979 205.591 51.5098C205.58 51.3216 205.591 51.1501 205.624 50.9951C205.657 50.8291 205.724 50.6797 205.823 50.5469C205.934 50.4141 205.973 50.2702 205.939 50.1152C205.995 50.1042 206.028 50.0765 206.039 50.0322C206.05 49.9769 206.094 49.9548 206.172 49.9658C206.238 49.7666 206.31 49.5785 206.388 49.4014C206.465 49.2243 206.543 49.0527 206.62 48.8867C206.709 48.7207 206.792 48.5547 206.869 48.3887C206.958 48.2116 207.041 48.0179 207.118 47.8076C206.963 47.6637 206.847 47.5088 206.77 47.3428C206.703 47.1657 206.653 46.9941 206.62 46.8281C206.587 46.651 206.559 46.474 206.537 46.2969C206.515 46.1087 206.476 45.9206 206.421 45.7324C206.532 45.5664 206.664 45.4336 206.819 45.334C206.985 45.2233 207.162 45.1348 207.351 45.0684C207.539 45.002 207.743 44.9466 207.965 44.9023C208.186 44.8581 208.419 44.8083 208.662 44.7529C209.105 44.609 209.498 44.4984 209.841 44.4209C210.195 44.3434 210.538 44.2826 210.87 44.2383C211.213 44.1829 211.567 44.1331 211.933 44.0889C212.298 44.0446 212.713 43.9782 213.178 43.8896C213.277 43.9893 213.371 44.0391 213.46 44.0391C213.504 43.9395 213.554 43.9118 213.609 43.9561C213.676 43.9893 213.703 43.9561 213.692 43.8564C213.803 44.0446 213.941 44.2051 214.107 44.3379C214.285 44.4596 214.478 44.5648 214.688 44.6533Z" fill="white"/>
<defs>
<linearGradient id="paint0_linear_6_25" x1="152.184" y1="88.9313" x2="161.073" y2="-40.5644" gradientUnits="userSpaceOnUse">
<stop stop-color="#C1F9D4"/>
<stop offset="0.375" stop-color="#B5665B"/>
<stop offset="0.864583" stop-color="#0C819A"/>
</linearGradient>
</defs>
</svg>
